<svg width="50" height="50" viewBox="0 0 50 50" version="1.1" xmlns="http://www.w3.org/2000/svg" xmlns:xlink="http://www.w3.org/1999/xlink">
<title>right</title>
<desc>Created using Figma</desc>
<g id="Canvas" transform="translate(-28367 540)">
<g id="right">
<g id="Ellipse 5">
<use xlink:href="#path0_fill" transform="translate(28367 -540)" fill="#000000" fill-opacity="0.5"/>
</g>
<g id="Vector 13">
<use xlink:href="#path1_stroke" transform="translate(28387 -526)" fill="#FFFFFF"/>
</g>
</g>
</g>
<defs>
<path id="path0_fill" d="M 50 25C 50 38.8071 38.8071 50 25 50C 11.1929 50 0 38.8071 0 25C 0 11.1929 11.1929 0 25 0C 38.8071 0 50 11.1929 50 25Z"/>
<path id="path1_stroke" d="M 11 11L 11.3536 11.3536L 11.7071 11L 11.3536 10.6464L 11 11ZM -0.353553 0.353553L 10.6464 11.3536L 11.3536 10.6464L 0.353553 -0.353553L -0.353553 0.353553ZM 10.6464 10.6464L -0.353553 21.6464L 0.353553 22.3536L 11.3536 11.3536L 10.6464 10.6464Z"/>
</defs>
</svg>
