<svg width="189" height="50" viewBox="0 0 189 50" version="1.1" xmlns="http://www.w3.org/2000/svg" xmlns:xlink="http://www.w3.org/1999/xlink">
<style>
    #path0_fill {
        fill: currentColor;
    }

    #path2_fill {
        fill: #474747
    }

</style>
<g id="Canvas" transform="translate(-21664 887)">
<g id="logo">
<g id="Ellipse 4">
<use xlink:href="#path0_fill" transform="translate(21664 -887)"/>
</g>
<g id="Rectangle_42">
<use xlink:href="#path1_fill" transform="translate(21676 -875)" fill="#FFFFFF" fill-opacity="0.5"/>
</g>
<g id="Rectangle_43">
<use xlink:href="#path1_fill" transform="matrix(0.707107 -0.707107 0.707107 0.707107 21670.6 -862)" fill="#FFFFFF" fill-opacity="0.5"/>
</g>
<g id="title_logo">
<use xlink:href="#path2_fill" transform="translate(21725 -884)" />
</g>
<g id="under_logo">
<use xlink:href="#path3_fill" transform="translate(21724 -858)" fill="#828282"/>
</g>
</g>
</g>
<defs>
<path id="path0_fill" d="M 50 25C 50 38.8071 38.8071 50 25 50C 11.1929 50 0 38.8071 0 25C 0 11.1929 11.1929 0 25 0C 38.8071 0 50 11.1929 50 25Z"/>
<path id="path1_fill" d="M 0 0L 26 0L 26 26L 0 26L 0 0Z"/>
<path id="path2_fill" d="M 17.251 26L 13.728 26L 13.728 9.893L 8.593 9.893C 8.47167 12.2503 8.29833 14.2913 8.073 16.016C 7.85633 17.732 7.592 19.1967 7.28 20.41C 6.97667 21.6147 6.62567 22.594 6.227 23.348C 5.837 24.102 5.408 24.6913 4.94 25.116C 4.472 25.532 3.96933 25.818 3.432 25.974C 2.89467 26.1213 2.33133 26.195 1.742 26.195C 1.118 26.195 0.663 26.1387 0.377 26.026C 0.091 25.9133 -0.052 25.7487 -0.052 25.532L -0.052 23.348L 0.949 23.348C 1.17433 23.348 1.39967 23.322 1.625 23.27C 1.859 23.218 2.08867 23.1097 2.314 22.945C 2.548 22.7717 2.77333 22.5247 2.99 22.204C 3.21533 21.8833 3.42767 21.4543 3.627 20.917C 3.835 20.371 4.02567 19.7037 4.199 18.915C 4.381 18.1263 4.54133 17.1773 4.68 16.068C 4.82733 14.9587 4.953 13.676 5.057 12.22C 5.16967 10.7553 5.252 9.08267 5.304 7.202L 17.251 7.202L 17.251 26ZM 39.3677 16.601C 39.3677 17.979 39.138 19.2573 38.6787 20.436C 38.228 21.606 37.5867 22.62 36.7547 23.478C 35.9227 24.336 34.9217 25.0077 33.7517 25.493C 32.5817 25.9697 31.2817 26.208 29.8517 26.208C 28.4303 26.208 27.1347 25.9697 25.9647 25.493C 24.7947 25.0077 23.7893 24.336 22.9487 23.478C 22.1167 22.62 21.471 21.606 21.0117 20.436C 20.5523 19.2573 20.3227 17.979 20.3227 16.601C 20.3227 15.223 20.5523 13.949 21.0117 12.779C 21.471 11.6003 22.1167 10.582 22.9487 9.724C 23.7893 8.866 24.7947 8.19867 25.9647 7.722C 27.1347 7.23667 28.4303 6.994 29.8517 6.994C 30.805 6.994 31.702 7.10667 32.5427 7.332C 33.3833 7.54867 34.1547 7.86067 34.8567 8.268C 35.5587 8.66667 36.187 9.15633 36.7417 9.737C 37.305 10.309 37.7817 10.9503 38.1717 11.661C 38.5617 12.3717 38.8563 13.143 39.0557 13.975C 39.2637 14.807 39.3677 15.6823 39.3677 16.601ZM 35.7927 16.601C 35.7927 15.5697 35.654 14.6467 35.3767 13.832C 35.0993 13.0087 34.705 12.311 34.1937 11.739C 33.6823 11.167 33.0583 10.7293 32.3217 10.426C 31.5937 10.1227 30.7703 9.971 29.8517 9.971C 28.933 9.971 28.1053 10.1227 27.3687 10.426C 26.6407 10.7293 26.0167 11.167 25.4967 11.739C 24.9853 12.311 24.591 13.0087 24.3137 13.832C 24.0363 14.6467 23.8977 15.5697 23.8977 16.601C 23.8977 17.6323 24.0363 18.5597 24.3137 19.383C 24.591 20.1977 24.9853 20.891 25.4967 21.463C 26.0167 22.0263 26.6407 22.4597 27.3687 22.763C 28.1053 23.0663 28.933 23.218 29.8517 23.218C 30.7703 23.218 31.5937 23.0663 32.3217 22.763C 33.0583 22.4597 33.6823 22.0263 34.1937 21.463C 34.705 20.891 35.0993 20.1977 35.3767 19.383C 35.654 18.5597 35.7927 17.6323 35.7927 16.601ZM 54.0347 9.893L 45.9487 9.893L 45.9487 26L 42.4387 26L 42.4387 7.202L 54.0347 7.202L 54.0347 9.893ZM 73.6958 16.601C 73.6958 17.979 73.4661 19.2573 73.0068 20.436C 72.5561 21.606 71.9148 22.62 71.0828 23.478C 70.2508 24.336 69.2498 25.0077 68.0798 25.493C 66.9098 25.9697 65.6098 26.208 64.1798 26.208C 62.7584 26.208 61.4628 25.9697 60.2928 25.493C 59.1228 25.0077 58.1174 24.336 57.2768 23.478C 56.4448 22.62 55.7991 21.606 55.3398 20.436C 54.8804 19.2573 54.6508 17.979 54.6508 16.601C 54.6508 15.223 54.8804 13.949 55.3398 12.779C 55.7991 11.6003 56.4448 10.582 57.2768 9.724C 58.1174 8.866 59.1228 8.19867 60.2928 7.722C 61.4628 7.23667 62.7584 6.994 64.1798 6.994C 65.1331 6.994 66.0301 7.10667 66.8708 7.332C 67.7114 7.54867 68.4828 7.86067 69.1848 8.268C 69.8868 8.66667 70.5151 9.15633 71.0698 9.737C 71.6331 10.309 72.1098 10.9503 72.4998 11.661C 72.8898 12.3717 73.1844 13.143 73.3838 13.975C 73.5918 14.807 73.6958 15.6823 73.6958 16.601ZM 70.1208 16.601C 70.1208 15.5697 69.9821 14.6467 69.7048 13.832C 69.4274 13.0087 69.0331 12.311 68.5218 11.739C 68.0104 11.167 67.3864 10.7293 66.6498 10.426C 65.9218 10.1227 65.0984 9.971 64.1798 9.971C 63.2611 9.971 62.4334 10.1227 61.6968 10.426C 60.9688 10.7293 60.3448 11.167 59.8248 11.739C 59.3134 12.311 58.9191 13.0087 58.6418 13.832C 58.3644 14.6467 58.2258 15.5697 58.2258 16.601C 58.2258 17.6323 58.3644 18.5597 58.6418 19.383C 58.9191 20.1977 59.3134 20.891 59.8248 21.463C 60.3448 22.0263 60.9688 22.4597 61.6968 22.763C 62.4334 23.0663 63.2611 23.218 64.1798 23.218C 65.0984 23.218 65.9218 23.0663 66.6498 22.763C 67.3864 22.4597 68.0104 22.0263 68.5218 21.463C 69.0331 20.891 69.4274 20.1977 69.7048 19.383C 69.9821 18.5597 70.1208 17.6323 70.1208 16.601ZM 89.8968 10.075L 84.2288 10.075L 84.2288 26L 80.7318 26L 80.7318 10.075L 75.0638 10.075L 75.0638 7.202L 89.8968 7.202L 89.8968 10.075ZM 108.204 7.202L 108.204 26L 104.694 26L 104.694 14.222C 104.694 13.78 104.702 13.3163 104.72 12.831C 104.746 12.3457 104.798 11.83 104.876 11.284C 104.702 11.7693 104.512 12.22 104.304 12.636C 104.104 13.0433 103.909 13.403 103.719 13.715L 96.5297 24.921C 96.4517 25.051 96.3563 25.181 96.2437 25.311C 96.1397 25.441 96.0227 25.558 95.8927 25.662C 95.7627 25.7573 95.6197 25.8397 95.4637 25.909C 95.3077 25.9697 95.1473 26 94.9827 26L 92.3567 26L 92.3567 7.202L 95.8667 7.202L 95.8667 18.98C 95.8667 19.422 95.8537 19.89 95.8277 20.384C 95.8103 20.8693 95.7627 21.385 95.6847 21.931C 95.858 21.4457 96.0443 20.995 96.2437 20.579C 96.4517 20.163 96.6553 19.799 96.8547 19.487L 104.031 8.281C 104.109 8.151 104.2 8.021 104.304 7.891C 104.416 7.761 104.538 7.64833 104.668 7.553C 104.798 7.449 104.936 7.36667 105.084 7.306C 105.24 7.23667 105.404 7.202 105.578 7.202L 108.204 7.202ZM 127.587 26L 124.064 26L 124.064 9.893L 115.9 9.893L 115.9 26L 112.39 26L 112.39 7.202L 127.587 7.202L 127.587 26Z"/>
<path id="path3_fill" d="M 3.71 13.125C 4.17667 13.125 4.54533 13.0177 4.816 12.803C 5.08667 12.5837 5.222 12.285 5.222 11.907C 5.222 11.739 5.19633 11.5873 5.145 11.452C 5.09367 11.312 5.00967 11.1907 4.893 11.088C 4.77633 10.9853 4.62 10.906 4.424 10.85C 4.23267 10.794 3.997 10.766 3.717 10.766L 2.184 10.766L 2.184 13.125L 3.71 13.125ZM 2.184 7.749L 2.184 9.975L 3.549 9.975C 3.75433 9.975 3.94333 9.947 4.116 9.891C 4.29333 9.83033 4.445 9.74867 4.571 9.646C 4.697 9.53867 4.795 9.41267 4.865 9.268C 4.935 9.11867 4.97 8.95533 4.97 8.778C 4.97 8.64733 4.94667 8.52133 4.9 8.4C 4.85333 8.274 4.774 8.16433 4.662 8.071C 4.55 7.973 4.403 7.896 4.221 7.84C 4.039 7.77933 3.815 7.749 3.549 7.749L 2.184 7.749ZM 3.584 6.909C 4.02267 6.909 4.39833 6.95333 4.711 7.042C 5.02367 7.13067 5.28033 7.252 5.481 7.406C 5.68167 7.55533 5.82867 7.73267 5.922 7.938C 6.01533 8.14333 6.062 8.36267 6.062 8.596C 6.062 8.75 6.041 8.911 5.999 9.079C 5.957 9.247 5.88233 9.408 5.775 9.562C 5.67233 9.716 5.53 9.856 5.348 9.982C 5.17067 10.1033 4.94667 10.199 4.676 10.269C 5.21733 10.3623 5.635 10.5513 5.929 10.836C 6.223 11.116 6.37 11.487 6.37 11.949C 6.37 12.2943 6.3 12.5953 6.16 12.852C 6.02467 13.104 5.83567 13.3163 5.593 13.489C 5.355 13.6617 5.075 13.79 4.753 13.874C 4.431 13.958 4.08567 14 3.717 14L 0.987 14L 0.987 6.909L 3.584 6.909ZM 11.9573 10.808C 11.3833 10.8267 10.8933 10.8733 10.4873 10.948C 10.086 11.018 9.75698 11.1113 9.50031 11.228C 9.24831 11.3447 9.06398 11.4823 8.94731 11.641C 8.83531 11.7997 8.77931 11.977 8.77931 12.173C 8.77931 12.3597 8.80965 12.5207 8.87031 12.656C 8.93098 12.7913 9.01265 12.9033 9.11531 12.992C 9.22265 13.076 9.34631 13.139 9.48631 13.181C 9.63098 13.2183 9.78498 13.237 9.94831 13.237C 10.1676 13.237 10.3683 13.216 10.5503 13.174C 10.7323 13.1273 10.9026 13.062 11.0613 12.978C 11.2246 12.894 11.3786 12.7937 11.5233 12.677C 11.6726 12.5603 11.8173 12.4273 11.9573 12.278L 11.9573 10.808ZM 7.93231 7.91C 8.32431 7.532 8.74665 7.24967 9.19931 7.063C 9.65198 6.87633 10.1536 6.783 10.7043 6.783C 11.101 6.783 11.4533 6.84833 11.7613 6.979C 12.0693 7.10967 12.3283 7.29167 12.5383 7.525C 12.7483 7.75833 12.907 8.04067 13.0143 8.372C 13.1216 8.70333 13.1753 9.06733 13.1753 9.464L 13.1753 14L 12.6223 14C 12.501 14 12.4076 13.9813 12.3423 13.944C 12.277 13.902 12.2256 13.8227 12.1883 13.706L 12.0483 13.034C 11.8616 13.2067 11.6796 13.3607 11.5023 13.496C 11.325 13.6267 11.1383 13.7387 10.9423 13.832C 10.7463 13.9207 10.5363 13.9883 10.3123 14.035C 10.093 14.0863 9.84798 14.112 9.57731 14.112C 9.30198 14.112 9.04298 14.0747 8.80031 14C 8.55765 13.9207 8.34531 13.804 8.16331 13.65C 7.98598 13.496 7.84365 13.3023 7.73631 13.069C 7.63365 12.831 7.58231 12.551 7.58231 12.229C 7.58231 11.949 7.65931 11.6807 7.81331 11.424C 7.96731 11.1627 8.21698 10.9317 8.56231 10.731C 8.90765 10.5303 9.35798 10.367 9.91331 10.241C 10.4686 10.1103 11.15 10.0357 11.9573 10.017L 11.9573 9.464C 11.9573 8.91333 11.8383 8.498 11.6003 8.218C 11.3623 7.93333 11.0146 7.791 10.5573 7.791C 10.2493 7.791 9.99031 7.83067 9.78031 7.91C 9.57498 7.98467 9.39531 8.071 9.24131 8.169C 9.09198 8.26233 8.96131 8.34867 8.84931 8.428C 8.74198 8.50267 8.63465 8.54 8.52731 8.54C 8.44331 8.54 8.37098 8.519 8.31031 8.477C 8.24965 8.43033 8.19831 8.37433 8.15631 8.309L 7.93231 7.91ZM 24.7963 6.909L 24.7963 14L 15.2553 14L 15.2553 6.909L 16.5083 6.909L 16.5083 13.055L 19.3993 13.055L 19.3993 6.909L 20.6523 6.909L 20.6523 13.055L 23.5433 13.055L 23.5433 6.909L 24.7963 6.909ZM 31.695 9.681C 31.695 9.39167 31.653 9.128 31.569 8.89C 31.4897 8.64733 31.3707 8.43967 31.212 8.267C 31.058 8.08967 30.869 7.95433 30.645 7.861C 30.421 7.763 30.1667 7.714 29.882 7.714C 29.2847 7.714 28.811 7.889 28.461 8.239C 28.1157 8.58433 27.901 9.065 27.817 9.681L 31.695 9.681ZM 32.703 13.006C 32.549 13.1927 32.3647 13.356 32.15 13.496C 31.9354 13.6313 31.7044 13.7433 31.457 13.832C 31.2144 13.9207 30.9624 13.986 30.701 14.028C 30.4397 14.0747 30.1807 14.098 29.924 14.098C 29.434 14.098 28.9814 14.0163 28.566 13.853C 28.1554 13.685 27.7984 13.4423 27.495 13.125C 27.1964 12.803 26.963 12.4063 26.795 11.935C 26.627 11.4637 26.543 10.9223 26.543 10.311C 26.543 9.81633 26.6177 9.35433 26.767 8.925C 26.921 8.49567 27.1404 8.12467 27.425 7.812C 27.7097 7.49467 28.0574 7.24733 28.468 7.07C 28.8787 6.888 29.3407 6.797 29.854 6.797C 30.2787 6.797 30.6707 6.86933 31.03 7.014C 31.394 7.154 31.7067 7.35933 31.968 7.63C 32.234 7.896 32.4417 8.22733 32.591 8.624C 32.7404 9.016 32.815 9.464 32.815 9.968C 32.815 10.164 32.794 10.2947 32.752 10.36C 32.71 10.4253 32.6307 10.458 32.514 10.458L 27.775 10.458C 27.789 10.906 27.8497 11.2957 27.957 11.627C 28.069 11.9583 28.223 12.236 28.419 12.46C 28.615 12.6793 28.8484 12.845 29.119 12.957C 29.3897 13.0643 29.693 13.118 30.029 13.118C 30.3417 13.118 30.61 13.083 30.834 13.013C 31.0627 12.9383 31.2587 12.859 31.422 12.775C 31.5854 12.691 31.7207 12.614 31.828 12.544C 31.94 12.4693 32.0357 12.432 32.115 12.432C 32.2177 12.432 32.297 12.4717 32.353 12.551L 32.703 13.006ZM 40.6105 6.909L 40.6105 14L 39.3645 14L 39.3645 9.184C 39.3645 9.09067 39.3692 8.99033 39.3785 8.883C 39.3878 8.77567 39.3995 8.66833 39.4135 8.561C 39.3715 8.65433 39.3295 8.74067 39.2875 8.82C 39.2455 8.89933 39.2012 8.97167 39.1545 9.037L 35.7315 13.692C 35.6802 13.7667 35.6148 13.839 35.5355 13.909C 35.4608 13.9743 35.3768 14.007 35.2835 14.007L 34.5275 14.007L 34.5275 6.916L 35.7805 6.916L 35.7805 11.732C 35.7805 11.8207 35.7758 11.9187 35.7665 12.026C 35.7572 12.1287 35.7455 12.2337 35.7315 12.341C 35.7735 12.2523 35.8155 12.1707 35.8575 12.096C 35.8995 12.0167 35.9415 11.9443 35.9835 11.879L 39.4065 7.224C 39.4578 7.14933 39.5232 7.07933 39.6025 7.014C 39.6818 6.944 39.7682 6.909 39.8615 6.909L 40.6105 6.909ZM 37.6495 5.194C 37.8408 5.194 38.0018 5.173 38.1325 5.131C 38.2632 5.08433 38.3682 5.012 38.4475 4.914C 38.5315 4.816 38.5922 4.69 38.6295 4.536C 38.6668 4.382 38.6855 4.193 38.6855 3.969L 39.4135 3.969C 39.5022 3.969 39.5698 4.00867 39.6165 4.088C 39.6632 4.16733 39.6865 4.25367 39.6865 4.347C 39.6865 4.58033 39.6398 4.79033 39.5465 4.977C 39.4532 5.16367 39.3178 5.32467 39.1405 5.46C 38.9678 5.59067 38.7555 5.691 38.5035 5.761C 38.2515 5.831 37.9668 5.866 37.6495 5.866C 37.3322 5.866 37.0475 5.831 36.7955 5.761C 36.5435 5.691 36.3288 5.59067 36.1515 5.46C 35.9788 5.32467 35.8458 5.16367 35.7525 4.977C 35.6592 4.79033 35.6125 4.58033 35.6125 4.347C 35.6125 4.25367 35.6358 4.16733 35.6825 4.088C 35.7292 4.00867 35.7968 3.969 35.8855 3.969L 36.6135 3.969C 36.6135 4.193 36.6322 4.382 36.6695 4.536C 36.7068 4.69 36.7652 4.816 36.8445 4.914C 36.9285 5.012 37.0358 5.08433 37.1665 5.131C 37.2972 5.173 37.4582 5.194 37.6495 5.194ZM 49.5153 6.797C 50.0333 6.797 50.4999 6.88333 50.9153 7.056C 51.3306 7.22867 51.6853 7.47367 51.9793 7.791C 52.2733 8.10833 52.4973 8.49333 52.6513 8.946C 52.8099 9.394 52.8893 9.89567 52.8893 10.451C 52.8893 11.011 52.8099 11.515 52.6513 11.963C 52.4973 12.411 52.2733 12.7937 51.9793 13.111C 51.6853 13.4283 51.3306 13.6733 50.9153 13.846C 50.4999 14.014 50.0333 14.098 49.5153 14.098C 48.9926 14.098 48.5213 14.014 48.1013 13.846C 47.6859 13.6733 47.3313 13.4283 47.0373 13.111C 46.7433 12.7937 46.5169 12.411 46.3583 11.963C 46.2043 11.515 46.1273 11.011 46.1273 10.451C 46.1273 9.89567 46.2043 9.394 46.3583 8.946C 46.5169 8.49333 46.7433 8.10833 47.0373 7.791C 47.3313 7.47367 47.6859 7.22867 48.1013 7.056C 48.5213 6.88333 48.9926 6.797 49.5153 6.797ZM 49.5153 13.125C 50.2153 13.125 50.7379 12.8917 51.0833 12.425C 51.4286 11.9537 51.6013 11.298 51.6013 10.458C 51.6013 9.61333 51.4286 8.95533 51.0833 8.484C 50.7379 8.01267 50.2153 7.777 49.5153 7.777C 49.1606 7.777 48.8503 7.83767 48.5843 7.959C 48.3229 8.08033 48.1036 8.25533 47.9263 8.484C 47.7536 8.71267 47.6229 8.995 47.5343 9.331C 47.4503 9.66233 47.4083 10.038 47.4083 10.458C 47.4083 11.298 47.5809 11.9537 47.9263 12.425C 48.2763 12.8917 48.8059 13.125 49.5153 13.125ZM 55.9046 12.292C 56.1333 12.6 56.383 12.817 56.6536 12.943C 56.9243 13.069 57.2276 13.132 57.5636 13.132C 58.2263 13.132 58.735 12.8963 59.0896 12.425C 59.4443 11.9537 59.6216 11.2817 59.6216 10.409C 59.6216 9.947 59.5796 9.55033 59.4956 9.219C 59.4163 8.88767 59.2996 8.617 59.1456 8.407C 58.9916 8.19233 58.8026 8.036 58.5786 7.938C 58.3546 7.84 58.1003 7.791 57.8156 7.791C 57.4096 7.791 57.0526 7.88433 56.7446 8.071C 56.4413 8.25767 56.1613 8.52133 55.9046 8.862L 55.9046 12.292ZM 55.8416 8.008C 56.1403 7.63933 56.4856 7.343 56.8776 7.119C 57.2696 6.895 57.7176 6.783 58.2216 6.783C 58.6323 6.783 59.0033 6.86233 59.3346 7.021C 59.666 7.175 59.9483 7.406 60.1816 7.714C 60.415 8.01733 60.5946 8.39533 60.7206 8.848C 60.8466 9.30067 60.9096 9.821 60.9096 10.409C 60.9096 10.9317 60.8396 11.4193 60.6996 11.872C 60.5596 12.32 60.3566 12.7097 60.0906 13.041C 59.8293 13.3677 59.5073 13.6267 59.1246 13.818C 58.7466 14.0047 58.3196 14.098 57.8436 14.098C 57.4096 14.098 57.0363 14.0257 56.7236 13.881C 56.4156 13.7317 56.1426 13.5263 55.9046 13.265L 55.9046 16.401L 54.6516 16.401L 54.6516 6.909L 55.4006 6.909C 55.578 6.909 55.6876 6.99533 55.7296 7.168L 55.8416 8.008ZM 67.2666 7.861L 63.9206 7.861L 63.9206 14L 62.6676 14L 62.6676 6.909L 67.2666 6.909L 67.2666 7.861ZM 72.3938 10.808C 71.8198 10.8267 71.3298 10.8733 70.9238 10.948C 70.5224 11.018 70.1934 11.1113 69.9368 11.228C 69.6848 11.3447 69.5004 11.4823 69.3838 11.641C 69.2718 11.7997 69.2158 11.977 69.2158 12.173C 69.2158 12.3597 69.2461 12.5207 69.3068 12.656C 69.3674 12.7913 69.4491 12.9033 69.5518 12.992C 69.6591 13.076 69.7828 13.139 69.9228 13.181C 70.0674 13.2183 70.2214 13.237 70.3848 13.237C 70.6041 13.237 70.8048 13.216 70.9868 13.174C 71.1688 13.1273 71.3391 13.062 71.4978 12.978C 71.6611 12.894 71.8151 12.7937 71.9598 12.677C 72.1091 12.5603 72.2538 12.4273 72.3938 12.278L 72.3938 10.808ZM 68.3688 7.91C 68.7608 7.532 69.1831 7.24967 69.6358 7.063C 70.0884 6.87633 70.5901 6.783 71.1408 6.783C 71.5374 6.783 71.8898 6.84833 72.1978 6.979C 72.5058 7.10967 72.7648 7.29167 72.9748 7.525C 73.1848 7.75833 73.3434 8.04067 73.4508 8.372C 73.5581 8.70333 73.6118 9.06733 73.6118 9.464L 73.6118 14L 73.0588 14C 72.9374 14 72.8441 13.9813 72.7788 13.944C 72.7134 13.902 72.6621 13.8227 72.6248 13.706L 72.4848 13.034C 72.2981 13.2067 72.1161 13.3607 71.9388 13.496C 71.7614 13.6267 71.5748 13.7387 71.3788 13.832C 71.1828 13.9207 70.9728 13.9883 70.7488 14.035C 70.5294 14.0863 70.2844 14.112 70.0138 14.112C 69.7384 14.112 69.4794 14.0747 69.2368 14C 68.9941 13.9207 68.7818 13.804 68.5998 13.65C 68.4224 13.496 68.2801 13.3023 68.1728 13.069C 68.0701 12.831 68.0188 12.551 68.0188 12.229C 68.0188 11.949 68.0958 11.6807 68.2498 11.424C 68.4038 11.1627 68.6534 10.9317 68.9988 10.731C 69.3441 10.5303 69.7944 10.367 70.3498 10.241C 70.9051 10.1103 71.5864 10.0357 72.3938 10.017L 72.3938 9.464C 72.3938 8.91333 72.2748 8.498 72.0368 8.218C 71.7988 7.93333 71.4511 7.791 70.9938 7.791C 70.6858 7.791 70.4268 7.83067 70.2168 7.91C 70.0114 7.98467 69.8318 8.071 69.6778 8.169C 69.5284 8.26233 69.3978 8.34867 69.2858 8.428C 69.1784 8.50267 69.0711 8.54 68.9638 8.54C 68.8798 8.54 68.8074 8.519 68.7468 8.477C 68.6861 8.43033 68.6348 8.37433 68.5928 8.309L 68.3688 7.91ZM 81.5998 6.909L 81.5998 14L 80.3468 14L 80.3468 10.682L 76.9448 10.682L 76.9448 14L 75.6918 14L 75.6918 6.909L 76.9448 6.909L 76.9448 9.737L 80.3468 9.737L 80.3468 6.909L 81.5998 6.909ZM 89.8454 6.909L 89.8454 14L 88.5994 14L 88.5994 9.184C 88.5994 9.09067 88.6041 8.99033 88.6134 8.883C 88.6228 8.77567 88.6344 8.66833 88.6484 8.561C 88.6064 8.65433 88.5644 8.74067 88.5224 8.82C 88.4804 8.89933 88.4361 8.97167 88.3894 9.037L 84.9664 13.692C 84.9151 13.7667 84.8498 13.839 84.7704 13.909C 84.6958 13.9743 84.6118 14.007 84.5184 14.007L 83.7624 14.007L 83.7624 6.916L 85.0154 6.916L 85.0154 11.732C 85.0154 11.8207 85.0108 11.9187 85.0014 12.026C 84.9921 12.1287 84.9804 12.2337 84.9664 12.341C 85.0084 12.2523 85.0504 12.1707 85.0924 12.096C 85.1344 12.0167 85.1764 11.9443 85.2184 11.879L 88.6414 7.224C 88.6928 7.14933 88.7581 7.07933 88.8374 7.014C 88.9168 6.944 89.0031 6.909 89.0964 6.909L 89.8454 6.909ZM 91.5492 7.637C 91.8152 7.385 92.1372 7.182 92.5152 7.028C 92.8978 6.874 93.3575 6.797 93.8942 6.797C 94.3235 6.797 94.7015 6.85067 95.0282 6.958C 95.3548 7.06067 95.6278 7.19833 95.8472 7.371C 96.0712 7.54367 96.2392 7.742 96.3512 7.966C 96.4678 8.18533 96.5262 8.414 96.5262 8.652C 96.5262 8.792 96.5028 8.939 96.4562 9.093C 96.4142 9.247 96.3418 9.394 96.2392 9.534C 96.1365 9.674 96.0035 9.80467 95.8402 9.926C 95.6768 10.0473 95.4738 10.1453 95.2312 10.22C 95.6838 10.3553 96.0385 10.5723 96.2952 10.871C 96.5565 11.1697 96.6872 11.536 96.6872 11.97C 96.6872 12.2967 96.6125 12.593 96.4632 12.859C 96.3138 13.1203 96.1132 13.3443 95.8612 13.531C 95.6092 13.713 95.3152 13.853 94.9792 13.951C 94.6478 14.049 94.3002 14.098 93.9362 14.098C 93.7075 14.098 93.4742 14.077 93.2362 14.035C 93.0028 13.993 92.7742 13.9277 92.5502 13.839C 92.3262 13.7457 92.1138 13.6313 91.9132 13.496C 91.7172 13.3607 91.5422 13.1973 91.3882 13.006L 91.7382 12.551C 91.7942 12.4717 91.8735 12.432 91.9762 12.432C 92.0602 12.432 92.1488 12.4693 92.2422 12.544C 92.3402 12.614 92.4592 12.6933 92.5992 12.782C 92.7392 12.8707 92.9095 12.9523 93.1102 13.027C 93.3155 13.097 93.5652 13.132 93.8592 13.132C 94.1158 13.132 94.3445 13.1017 94.5452 13.041C 94.7505 12.9757 94.9232 12.887 95.0632 12.775C 95.2032 12.663 95.3105 12.53 95.3852 12.376C 95.4598 12.222 95.4972 12.054 95.4972 11.872C 95.4972 11.522 95.3502 11.2397 95.0562 11.025C 94.7668 10.8103 94.3258 10.703 93.7332 10.703L 92.9282 10.703L 92.9282 9.877L 93.7332 9.877C 93.9898 9.877 94.2208 9.85133 94.4262 9.8C 94.6315 9.744 94.8065 9.66933 94.9512 9.576C 95.0958 9.48267 95.2055 9.37067 95.2802 9.24C 95.3548 9.10467 95.3922 8.96 95.3922 8.806C 95.3922 8.666 95.3595 8.533 95.2942 8.407C 95.2335 8.281 95.1378 8.17133 95.0072 8.078C 94.8812 7.98467 94.7225 7.91 94.5312 7.854C 94.3398 7.798 94.1158 7.77 93.8592 7.77C 93.5792 7.77 93.3412 7.798 93.1452 7.854C 92.9538 7.91 92.7905 7.97067 92.6552 8.036C 92.5245 8.10133 92.4172 8.162 92.3332 8.218C 92.2492 8.274 92.1768 8.302 92.1162 8.302C 92.0555 8.302 92.0042 8.29033 91.9622 8.267C 91.9248 8.24367 91.8828 8.19467 91.8362 8.12L 91.5492 7.637ZM 102.311 10.808C 101.737 10.8267 101.247 10.8733 100.841 10.948C 100.44 11.018 100.111 11.1113 99.8542 11.228C 99.6022 11.3447 99.4179 11.4823 99.3012 11.641C 99.1892 11.7997 99.1332 11.977 99.1332 12.173C 99.1332 12.3597 99.1636 12.5207 99.2242 12.656C 99.2849 12.7913 99.3666 12.9033 99.4692 12.992C 99.5766 13.076 99.7002 13.139 99.8402 13.181C 99.9849 13.2183 100.139 13.237 100.302 13.237C 100.522 13.237 100.722 13.216 100.904 13.174C 101.086 13.1273 101.257 13.062 101.415 12.978C 101.579 12.894 101.733 12.7937 101.877 12.677C 102.027 12.5603 102.171 12.4273 102.311 12.278L 102.311 10.808ZM 98.2862 7.91C 98.6782 7.532 99.1006 7.24967 99.5532 7.063C 100.006 6.87633 100.508 6.783 101.058 6.783C 101.455 6.783 101.807 6.84833 102.115 6.979C 102.423 7.10967 102.682 7.29167 102.892 7.525C 103.102 7.75833 103.261 8.04067 103.368 8.372C 103.476 8.70333 103.529 9.06733 103.529 9.464L 103.529 14L 102.976 14C 102.855 14 102.762 13.9813 102.696 13.944C 102.631 13.902 102.58 13.8227 102.542 13.706L 102.402 13.034C 102.216 13.2067 102.034 13.3607 101.856 13.496C 101.679 13.6267 101.492 13.7387 101.296 13.832C 101.1 13.9207 100.89 13.9883 100.666 14.035C 100.447 14.0863 100.202 14.112 99.9312 14.112C 99.6559 14.112 99.3969 14.0747 99.1542 14C 98.9116 13.9207 98.6992 13.804 98.5172 13.65C 98.3399 13.496 98.1976 13.3023 98.0902 13.069C 97.9876 12.831 97.9362 12.551 97.9362 12.229C 97.9362 11.949 98.0132 11.6807 98.1672 11.424C 98.3212 11.1627 98.5709 10.9317 98.9162 10.731C 99.2616 10.5303 99.7119 10.367 100.267 10.241C 100.823 10.1103 101.504 10.0357 102.311 10.017L 102.311 9.464C 102.311 8.91333 102.192 8.498 101.954 8.218C 101.716 7.93333 101.369 7.791 100.911 7.791C 100.603 7.791 100.344 7.83067 100.134 7.91C 99.9289 7.98467 99.7492 8.071 99.5952 8.169C 99.4459 8.26233 99.3152 8.34867 99.2032 8.428C 99.0959 8.50267 98.9886 8.54 98.8812 8.54C 98.7972 8.54 98.7249 8.519 98.6642 8.477C 98.6036 8.43033 98.5522 8.37433 98.5102 8.309L 98.2862 7.91ZM 112.812 13.055L 112.812 16.058C 112.812 16.1793 112.777 16.2727 112.707 16.338C 112.642 16.408 112.556 16.443 112.448 16.443L 111.685 16.443L 111.685 14L 105.609 14L 105.609 6.909L 106.862 6.909L 106.862 13.055L 110.264 13.055L 110.264 6.909L 111.517 6.909L 111.517 13.055L 112.812 13.055ZM 120.337 6.909L 120.337 14L 119.091 14L 119.091 9.184C 119.091 9.09067 119.096 8.99033 119.105 8.883C 119.114 8.77567 119.126 8.66833 119.14 8.561C 119.098 8.65433 119.056 8.74067 119.014 8.82C 118.972 8.89933 118.928 8.97167 118.881 9.037L 115.458 13.692C 115.407 13.7667 115.341 13.839 115.262 13.909C 115.187 13.9743 115.103 14.007 115.01 14.007L 114.254 14.007L 114.254 6.916L 115.507 6.916L 115.507 11.732C 115.507 11.8207 115.502 11.9187 115.493 12.026C 115.484 12.1287 115.472 12.2337 115.458 12.341C 115.5 12.2523 115.542 12.1707 115.584 12.096C 115.626 12.0167 115.668 11.9443 115.71 11.879L 119.133 7.224C 119.184 7.14933 119.25 7.07933 119.329 7.014C 119.408 6.944 119.495 6.909 119.588 6.909L 120.337 6.909ZM 128.572 6.909L 128.572 14L 127.326 14L 127.326 9.184C 127.326 9.09067 127.331 8.99033 127.34 8.883C 127.349 8.77567 127.361 8.66833 127.375 8.561C 127.333 8.65433 127.291 8.74067 127.249 8.82C 127.207 8.89933 127.163 8.97167 127.116 9.037L 123.693 13.692C 123.642 13.7667 123.576 13.839 123.497 13.909C 123.422 13.9743 123.338 14.007 123.245 14.007L 122.489 14.007L 122.489 6.916L 123.742 6.916L 123.742 11.732C 123.742 11.8207 123.737 11.9187 123.728 12.026C 123.719 12.1287 123.707 12.2337 123.693 12.341C 123.735 12.2523 123.777 12.1707 123.819 12.096C 123.861 12.0167 123.903 11.9443 123.945 11.879L 127.368 7.224C 127.419 7.14933 127.485 7.07933 127.564 7.014C 127.643 6.944 127.73 6.909 127.823 6.909L 128.572 6.909Z"/>
</defs>
</svg>
