<svg width="19" height="15" viewBox="0 0 19 15" version="1.1" xmlns="http://www.w3.org/2000/svg" xmlns:xlink="http://www.w3.org/1999/xlink">
<title>twitter</title>
<desc>Created using Figma</desc>
<g id="Canvas" transform="translate(-1519 -1866)">
<g id="twitter">
<use xlink:href="#path0_fill" transform="translate(1519 1864)" fill="#1DA1F2"/>
</g>
</g>
<defs>
<path id="path0_fill" d="M 18.0804 4.41071C 17.433 4.68973 16.7299 4.89062 16.0045 4.96875C 16.7522 4.52232 17.3214 3.8192 17.5893 2.98214C 16.8973 3.39509 16.1161 3.69643 15.3013 3.85268C 14.6429 3.14955 13.7054 2.71429 12.6674 2.71429C 10.6696 2.71429 9.0625 4.33259 9.0625 6.3192C 9.0625 6.59821 9.09598 6.87723 9.15179 7.14509C 6.16071 6.98884 3.4933 5.56027 1.71875 3.37277C 1.40625 3.90848 1.22768 4.52232 1.22768 5.19196C 1.22768 6.44196 1.86384 7.54688 2.83482 8.1942C 2.2433 8.17188 1.68527 8.00446 1.20536 7.73661C 1.20536 7.74777 1.20536 7.77009 1.20536 7.78125C 1.20536 9.53348 2.4442 10.9844 4.09598 11.3192C 3.79464 11.3973 3.47098 11.442 3.14732 11.442C 2.91295 11.442 2.68973 11.4196 2.46652 11.3862C 2.92411 12.8147 4.25223 13.8527 5.83705 13.8862C 4.59821 14.8571 3.04688 15.4263 1.36161 15.4263C 1.06027 15.4263 0.78125 15.4152 0.491071 15.3817C 2.08705 16.4085 3.98437 17 6.02679 17C 12.6562 17 16.2835 11.5089 16.2835 6.7433C 16.2835 6.58705 16.2835 6.4308 16.2723 6.27455C 16.9754 5.76116 17.5893 5.125 18.0804 4.41071Z"/>
</defs>
</svg>
