<svg width="51" height="44" viewBox="0 0 51 44" version="1.1" xmlns="http://www.w3.org/2000/svg" xmlns:xlink="http://www.w3.org/1999/xlink">
<title>quote-left 2</title>
<desc>Created using Figma</desc>
<g id="Canvas" transform="translate(-690 -1838)">
<g id="quote-left 2">
<g id="Group">
<g id="Group">
<g id="Vector">
<use xlink:href="#path0_fill" transform="translate(690 1838)" fill="#333"/>
</g>
<g id="Vector">
<use xlink:href="#path1_fill" transform="translate(717.462 1838)" fill="#333"/>
</g>
</g>
</g>
</g>
</g>
<defs>
<path id="path0_fill" d="M 17.6537 19.6156L 10.7883 19.6156C 9.97089 19.6156 9.27602 19.3296 8.70384 18.7574C 8.13199 18.1852 7.84568 17.4906 7.84568 16.673L 7.84568 15.6927C 7.84568 13.5267 8.61206 11.6777 10.1447 10.145C 11.6772 8.61293 13.5265 7.84655 15.6923 7.84655L 17.6537 7.84655C 18.1849 7.84655 18.6445 7.65236 19.0329 7.26429C 19.421 6.876 19.6151 6.41643 19.6151 5.88516L 19.6151 1.96172C 19.6151 1.43055 19.4209 0.970554 19.0329 0.582268C 18.6446 0.194519 18.185 -1.96564e-07 17.6537 -1.96564e-07L 15.6923 -1.96564e-07C 13.5671 -1.96564e-07 11.5396 0.414158 9.60848 1.24129C 7.67757 2.06896 6.00742 3.18777 4.59738 4.59781C 3.18744 6.00721 2.06896 7.67748 1.2414 9.6086C 0.413835 11.5395 0 13.5676 0 15.6926L 0 37.269C 0 38.9045 0.571854 40.2932 1.7161 41.4379C 2.86045 42.5819 4.25021 43.1538 5.88472 43.1538L 17.6545 43.1538C 19.2889 43.1538 20.6782 42.5819 21.8227 41.4379C 22.9667 40.2932 23.5389 38.9045 23.5389 37.269L 23.5389 25.5003C 23.5389 23.8651 22.9667 22.4765 21.8219 21.3317C 20.678 20.1878 19.2881 19.6156 17.6537 19.6156Z"/>
<path id="path1_fill" d="M 21.8225 21.3317C 20.6785 20.1878 19.2891 19.6156 17.6543 19.6156L 10.7889 19.6156C 9.97197 19.6156 9.27644 19.3296 8.70523 18.7574C 8.13284 18.1852 7.84708 17.4906 7.84708 16.673L 7.84708 15.6927C 7.84708 13.5267 8.61345 11.6777 10.1453 10.145C 11.6773 8.61293 13.5265 7.84655 15.6934 7.84655L 17.6544 7.84655C 18.1856 7.84655 18.6455 7.65236 19.0336 7.26429C 19.4215 6.876 19.6163 6.41643 19.6163 5.88516L 19.6163 1.96172C 19.6163 1.43055 19.4216 0.970554 19.0336 0.582268C 18.6456 0.194519 18.1858 -1.96564e-07 17.6544 -1.96564e-07L 15.6934 -1.96564e-07C 13.567 -1.96564e-07 11.5399 0.414158 9.60827 1.24129C 7.67768 2.06896 6.00807 3.18777 4.59802 4.59781C 3.18798 6.00721 2.06896 7.67748 1.24172 9.6086C 0.414371 11.5395 7.86256e-07 13.5676 7.86256e-07 15.6926L 7.86256e-07 37.269C 7.86256e-07 38.9045 0.572392 40.2932 1.71632 41.4379C 2.86035 42.5819 4.24978 43.1538 5.8845 43.1538L 17.6536 43.1538C 19.2885 43.1538 20.6778 42.5819 21.8217 41.4379C 22.9665 40.2932 23.5377 38.9045 23.5377 37.269L 23.5377 25.5003C 23.5378 23.865 22.9665 22.4765 21.8225 21.3317Z"/>
</defs>
</svg>
