<svg width="13" height="21" viewBox="0 0 13 21" version="1.1" xmlns="http://www.w3.org/2000/svg" xmlns:xlink="http://www.w3.org/1999/xlink">
<title>ok</title>
<desc>Created using Figma</desc>
<g id="Canvas" transform="translate(-1491 -1863)">
<g id="ok">
<use xlink:href="#path0_fill" transform="translate(1490 1864)" fill="#ED812B"/>
</g>
</g>
<defs>
<path id="path0_fill" d="M 7.14286 9.97991C 9.93304 9.97991 12.2098 7.71429 12.2098 4.92411C 12.2098 2.12277 9.93304 -0.142857 7.14286 -0.142857C 4.35268 -0.142857 2.07589 2.12277 2.07589 4.92411C 2.07589 7.71429 4.35268 9.97991 7.14286 9.97991ZM 7.14286 2.42411C 8.51562 2.42411 9.6317 3.54018 9.6317 4.92411C 9.6317 6.29688 8.51562 7.41295 7.14286 7.41295C 5.77009 7.41295 4.65402 6.29688 4.65402 4.92411C 4.65402 3.54018 5.77009 2.42411 7.14286 2.42411ZM 12.9799 10.5938C 12.6897 10.0246 11.8973 9.54464 10.8482 10.3705C 10.8482 10.3705 9.4308 11.4978 7.14286 11.4978C 4.85491 11.4978 3.4375 10.3705 3.4375 10.3705C 2.38839 9.54464 1.59598 10.0246 1.3058 10.5938C 0.814732 11.5982 1.37277 12.0781 2.64509 12.904C 3.72768 13.596 5.22321 13.8527 6.18304 13.9531L 5.37946 14.7567C 4.24107 15.8839 3.15848 16.9777 2.39955 17.7366C 1.94196 18.1942 1.94196 18.9308 2.39955 19.3772L 2.53348 19.5223C 2.97991 19.9688 3.71652 19.9688 4.17411 19.5223L 7.15402 16.5312C 8.29241 17.6696 9.38616 18.7634 10.1339 19.5223C 10.5915 19.9688 11.3281 19.9688 11.7857 19.5223L 11.9196 19.3772C 12.3661 18.9308 12.3661 18.1942 11.9196 17.7366L 8.93973 14.7567L 8.125 13.9531C 9.09598 13.8527 10.5692 13.5848 11.6406 12.904C 12.9129 12.0781 13.471 11.5982 12.9799 10.5938Z"/>
</defs>
</svg>
