<svg width="23" height="14" viewBox="0 0 23 14" version="1.1" xmlns="http://www.w3.org/2000/svg" xmlns:xlink="http://www.w3.org/1999/xlink">
<title>vk</title>
<desc>Created using Figma</desc>
<g id="Canvas" transform="translate(-1426 -1868)">
<g id="vk">
<use xlink:href="#path0_fill" transform="translate(1427 1864)" fill="#45668E"/>
</g>
</g>
<defs>
<path id="path0_fill" d="M 21.3951 5.66071C 21.3951 5.66071 21.2388 5.21429 20.2679 5.33705L 17.0536 5.35938C 16.808 5.32589 16.6295 5.42634 16.6295 5.42634C 16.6295 5.42634 16.4397 5.52679 16.3504 5.77232C 15.8259 7.12277 15.1562 8.28348 15.1562 8.28348C 13.7277 10.7165 13.1473 10.8504 12.9129 10.6942C 12.3661 10.3482 12.5112 9.28795 12.5112 8.52902C 12.5112 6.16295 12.8683 5.1808 11.808 4.92411C 11.4621 4.84598 11.2054 4.79018 10.3013 4.77902C 9.15179 4.76786 8.1808 4.77902 7.63393 5.04688C 7.26562 5.22545 6.98661 5.62723 7.15402 5.64955C 7.36607 5.68304 7.84598 5.78348 8.10268 6.12946C 8.10268 6.12946 8.3817 6.58705 8.42634 7.59152C 8.54911 10.3705 7.97991 10.7165 7.97991 10.7165C 7.54464 10.9509 6.78571 10.5603 5.66964 8.26116C 5.66964 8.26116 5.02232 7.12277 4.52009 5.87277C 4.4308 5.63839 4.25223 5.51562 4.25223 5.51562C 4.25223 5.51562 4.05134 5.35938 3.76116 5.31473L 0.703125 5.33705C 0.234375 5.33705 0.0669643 5.54911 0.0669643 5.54911C 0.0669643 5.54911 -0.100446 5.72768 0.0558036 6.09598C 2.4442 11.7098 5.16741 14.5223 5.16741 14.5223C 5.16741 14.5223 7.65625 17.1228 10.4799 16.9442L 11.7634 16.9442C 12.154 16.9107 12.3549 16.6987 12.3549 16.6987C 12.3549 16.6987 12.5335 16.4978 12.5223 16.1295C 12.5 14.4107 13.3036 14.154 13.3036 14.154C 14.0848 13.9085 15.0893 15.817 16.1607 16.5536C 16.1607 16.5536 16.9754 17.1116 17.5893 16.9888L 20.4464 16.9442C 21.9531 16.933 21.2388 15.683 21.2388 15.683C 21.183 15.5826 20.8259 14.8125 19.1071 13.2165C 17.3214 11.5536 17.5558 11.8214 19.721 8.94196C 21.0379 7.18973 21.5625 6.1183 21.3951 5.66071Z"/>
</defs>
</svg>
