<svg width="16" height="16" viewBox="0 0 16 16" version="1.1" xmlns="http://www.w3.org/2000/svg" xmlns:xlink="http://www.w3.org/1999/xlink">
<title>search_icon </title>
<desc>Created using Figma</desc>
<g id="Canvas" transform="translate(-13908 752)">
<g id="search_icon ">
<g id="Vector">
<use xlink:href="#path0_fill" transform="translate(13908 -752)" fill="#666666"/>
</g>
</g>
</g>
<defs>
<path id="path0_fill" d="M 11.4351 10.0629L 10.7124 10.0629L 10.4563 9.81589C 11.3528 8.77301 11.8925 7.4191 11.8925 5.94626C 11.8925 2.66209 9.23042 0 5.94626 0C 2.66209 0 0 2.66209 0 5.94626C 0 9.23042 2.66209 11.8925 5.94626 11.8925C 7.4191 11.8925 8.77301 11.3528 9.81589 10.4563L 10.0629 10.7124L 10.0629 11.4351L 14.6369 16L 16 14.6369L 11.4351 10.0629ZM 5.94626 10.0629C 3.66838 10.0629 1.82962 8.22413 1.82962 5.94626C 1.82962 3.66838 3.66838 1.82962 5.94626 1.82962C 8.22413 1.82962 10.0629 3.66838 10.0629 5.94626C 10.0629 8.22413 8.22413 10.0629 5.94626 10.0629Z"/>
</defs>
</svg>
