<?xml version="1.0" encoding="utf-8"?>
<!-- Generator: Adobe Illustrator 21.0.0, SVG Export Plug-In . SVG Version: 6.00 Build 0)  -->
<svg version="1.1" xmlns="http://www.w3.org/2000/svg" xmlns:xlink="http://www.w3.org/1999/xlink" x="0px" y="0px"
	 viewBox="0 0 30 30" style="enable-background:new 0 0 30 30;" xml:space="preserve">
<style type="text/css">
	.st0{fill:#FFFFFF;}
	.st1{fill:#F82900;}
	.st2{display:none;}
</style>
<g id="layer_1">
	<g>
		<path class="st0" d="M15,29C7.3,29,1,22.7,1,15S7.3,1,15,1s14,6.3,14,14S22.7,29,15,29z"/>
		<path class="st1" d="M15,2c7.2,0,13,5.8,13,13s-5.8,13-13,13S2,22.2,2,15S7.8,2,15,2 M15,0C6.7,0,0,6.7,0,15s6.7,15,15,15
			s15-6.7,15-15S23.3,0,15,0L15,0z"/>
	</g>
	<g>
		<g>
			<path class="st1" d="M15,17l-1.7-1.5l-5,4.2C8.5,19.9,8.7,20,9,20h12c0.3,0,0.5-0.1,0.7-0.3l-4.9-4.2L15,17z"/>
			<path class="st1" d="M21.7,10.3C21.5,10.1,21.3,10,21,10H9c-0.3,0-0.5,0.1-0.7,0.3L15,16L21.7,10.3z"/>
			<polygon class="st1" points="8,10.9 8,19.2 12.8,15.1 			"/>
			<polygon class="st1" points="17.2,15.1 22,19.2 22,10.9 			"/>
		</g>
	</g>
</g>
<g id="layer_2" class="st2">
</g>
</svg>
