<?xml version="1.0" encoding="utf-8"?>
<!-- Generator: Adobe Illustrator 21.0.0, SVG Export Plug-In . SVG Version: 6.00 Build 0)  -->
<svg version="1.1" id="Слой_1" xmlns="http://www.w3.org/2000/svg" xmlns:xlink="http://www.w3.org/1999/xlink" x="0px" y="0px"
	 viewBox="0 0 30 30" style="enable-background:new 0 0 30 30;" xml:space="preserve">
<style type="text/css">
	.st0{fill:#F82900;}
</style>
<g>
	<g>
		<path class="st0" d="M22.1,19.4c0,0.2,0,0.5-0.2,0.6l-2.1,2.1c-0.1,0.1-0.2,0.2-0.4,0.3c-0.2,0.1-0.3,0.1-0.5,0.1c0,0,0,0-0.1,0
			c-0.1,0-0.1,0-0.2,0c-0.2,0-0.5,0-1-0.1c-0.5-0.1-1-0.2-1.7-0.5c-0.7-0.3-1.4-0.7-2.2-1.2c-0.8-0.5-1.7-1.3-2.7-2.2
			c-0.7-0.7-1.4-1.4-1.9-2.1c-0.5-0.7-0.9-1.3-1.2-1.9c-0.3-0.6-0.5-1.1-0.7-1.6c-0.1-0.5-0.3-0.9-0.3-1.2C7,11.4,7,11.1,7,10.9
			c0-0.2,0-0.3,0-0.3c0-0.1,0.1-0.3,0.1-0.5C7.2,10,7.3,9.9,7.4,9.8l2.1-2.1c0.1-0.1,0.3-0.2,0.5-0.2c0.1,0,0.3,0,0.4,0.1
			c0.1,0.1,0.2,0.2,0.3,0.3l1.7,3.2c0.1,0.2,0.1,0.4,0.1,0.6c0,0.2-0.1,0.4-0.3,0.5L11.4,13c0,0,0,0.1-0.1,0.1s0,0.1,0,0.1
			c0,0.2,0.1,0.5,0.3,0.8c0.1,0.3,0.3,0.6,0.6,0.9c0.3,0.4,0.6,0.8,1.1,1.3c0.5,0.5,0.9,0.9,1.3,1.1c0.4,0.3,0.7,0.5,0.9,0.6
			c0.3,0.1,0.4,0.2,0.6,0.2l0.2,0c0,0,0.1,0,0.1,0c0,0,0.1,0,0.1-0.1l0.9-0.9c0.2-0.2,0.4-0.3,0.7-0.3c0.2,0,0.3,0,0.4,0.1h0
			l3.1,1.8C21.9,19,22.1,19.1,22.1,19.4z"/>
	</g>
</g>
<g>
	<path class="st0" d="M15,2c7.2,0,13,5.8,13,13s-5.8,13-13,13S2,22.2,2,15S7.8,2,15,2 M15,0C6.7,0,0,6.7,0,15s6.7,15,15,15
		s15-6.7,15-15S23.3,0,15,0L15,0z"/>
</g>
</svg>
