<svg width="24" height="19" viewBox="0 0 24 19" version="1.1" xmlns="http://www.w3.org/2000/svg" xmlns:xlink="http://www.w3.org/1999/xlink">
<title>Group</title>
<desc>Created using Figma</desc>
<g id="Canvas" transform="translate(120 574)">
<g id="Group">
<g id="Vector 6">
<use xlink:href="#path0_stroke" transform="translate(-119 -573)" fill="#333333"/>
</g>
<g id="Ellipse 8">
<mask id="mask0_outline_ins">
<use xlink:href="#path1_fill" fill="white" transform="translate(-113.69 -559.5)"/>
</mask>
<g mask="url(#mask0_outline_ins)">
<use xlink:href="#path2_stroke_2x" transform="translate(-113.69 -559.5)" fill="#333333"/>
</g>
</g>
<g id="Ellipse 8">
<mask id="mask1_outline_ins">
<use xlink:href="#path1_fill" fill="white" transform="translate(-103.828 -559.5)"/>
</mask>
<g mask="url(#mask1_outline_ins)">
<use xlink:href="#path2_stroke_2x" transform="translate(-103.828 -559.5)" fill="#333333"/>
</g>
</g>
</g>
</g>
<defs>
<path id="path0_stroke" d="M 7.58621 11.25L 6.67032 11.6514C 6.82972 12.0151 7.18916 12.25 7.58621 12.25L 7.58621 11.25ZM 17.8276 11.25L 17.8276 12.25C 18.2047 12.25 18.5498 12.0378 18.72 11.7013L 17.8276 11.25ZM 22 3L 22.8924 3.45131C 23.0491 3.14131 23.0338 2.77215 22.8519 2.47622C 22.6699 2.18029 22.3474 2 22 2L 22 3ZM 7.96552 2C 7.41323 2 6.96552 2.44772 6.96552 3C 6.96552 3.55228 7.41323 4 7.96552 4L 7.96552 2ZM 2.65517 0L 3.57106 -0.401445C 3.41166 -0.765096 3.05222 -1 2.65517 -1L 2.65517 0ZM 0 -1C -0.552285 -1 -1 -0.552285 -1 0C -1 0.552285 -0.552285 1 0 1L 0 -1ZM 7.58621 12.25L 17.8276 12.25L 17.8276 10.25L 7.58621 10.25L 7.58621 12.25ZM 18.72 11.7013L 22.8924 3.45131L 21.1076 2.54869L 16.9352 10.7987L 18.72 11.7013ZM 22 2L 7.96552 2L 7.96552 4L 22 4L 22 2ZM 2.65517 -1L 0 -1L 0 1L 2.65517 1L 2.65517 -1ZM 8.50209 10.8486L 3.57106 -0.401445L 1.73929 0.401445L 6.67032 11.6514L 8.50209 10.8486Z"/>
<path id="path1_fill" d="M 4.55172 2.25C 4.55172 3.49264 3.53279 4.5 2.27586 4.5C 1.01894 4.5 0 3.49264 0 2.25C 0 1.00736 1.01894 0 2.27586 0C 3.53279 0 4.55172 1.00736 4.55172 2.25Z"/>
<path id="path2_stroke_2x" d="M 2.55172 2.25C 2.55172 2.36658 2.44983 2.5 2.27586 2.5L 2.27586 6.5C 4.61574 6.5 6.55172 4.6187 6.55172 2.25L 2.55172 2.25ZM 2.27586 2.5C 2.1019 2.5 2 2.36658 2 2.25L -2 2.25C -2 4.6187 -0.0640203 6.5 2.27586 6.5L 2.27586 2.5ZM 2 2.25C 2 2.13342 2.1019 2 2.27586 2L 2.27586 -2C -0.0640203 -2 -2 -0.118698 -2 2.25L 2 2.25ZM 2.27586 2C 2.44983 2 2.55172 2.13342 2.55172 2.25L 6.55172 2.25C 6.55172 -0.118698 4.61574 -2 2.27586 -2L 2.27586 2Z"/>
</defs>
</svg>
