<svg width="31" height="25" viewBox="0 0 31 25" version="1.1" xmlns="http://www.w3.org/2000/svg" xmlns:xlink="http://www.w3.org/1999/xlink">
<title>Group</title>
<desc>Created using Figma</desc>
<g id="Canvas" transform="translate(-547 -9639)">
<g id="Group">
<g id="Vector 6">
<use xlink:href="#path0_stroke" transform="translate(548 9640)" fill="#333333"/>
</g>
<g id="Ellipse 8">
<mask id="mask0_outline_ins">
<use xlink:href="#path1_fill" fill="white" transform="translate(555 9658)"/>
</mask>
<g mask="url(#mask0_outline_ins)">
<use xlink:href="#path2_stroke_2x" transform="translate(555 9658)" fill="#333333"/>
</g>
</g>
<g id="Ellipse 8">
<mask id="mask1_outline_ins">
<use xlink:href="#path1_fill" fill="white" transform="translate(568 9658)"/>
</mask>
<g mask="url(#mask1_outline_ins)">
<use xlink:href="#path2_stroke_2x" transform="translate(568 9658)" fill="#333333"/>
</g>
</g>
</g>
</g>
<defs>
<path id="path0_stroke" d="M 10 15L 9.08244 15.3976C 9.24092 15.7633 9.60143 16 10 16L 10 15ZM 23.5 15L 23.5 16C 23.8788 16 24.225 15.786 24.3944 15.4472L 23.5 15ZM 29 4L 29.8944 4.44721C 30.0494 4.13723 30.0329 3.76909 29.8507 3.47427C 29.6684 3.17945 29.3466 3 29 3L 29 4ZM 10.5 3C 9.94771 3 9.5 3.44772 9.5 4C 9.5 4.55228 9.94771 5 10.5 5L 10.5 3ZM 3.5 0L 4.41756 -0.397607C 4.25908 -0.763317 3.89857 -1 3.5 -1L 3.5 0ZM 0 -1C -0.552285 -1 -1 -0.552285 -1 0C -1 0.552285 -0.552285 1 0 1L 0 -1ZM 10 16L 23.5 16L 23.5 14L 10 14L 10 16ZM 24.3944 15.4472L 29.8944 4.44721L 28.1056 3.55279L 22.6056 14.5528L 24.3944 15.4472ZM 29 3L 10.5 3L 10.5 5L 29 5L 29 3ZM 3.5 -1L 0 -1L 0 1L 3.5 1L 3.5 -1ZM 10.9176 14.6024L 4.41756 -0.397607L 2.58244 0.397607L 9.08244 15.3976L 10.9176 14.6024Z"/>
<path id="path1_fill" d="M 6 3C 6 4.65685 4.65685 6 3 6C 1.34315 6 0 4.65685 0 3C 0 1.34315 1.34315 0 3 0C 4.65685 0 6 1.34315 6 3Z"/>
<path id="path2_stroke_2x" d="M 4 3C 4 3.55228 3.55228 4 3 4L 3 8C 5.76142 8 8 5.76142 8 3L 4 3ZM 3 4C 2.44772 4 2 3.55228 2 3L -2 3C -2 5.76142 0.238576 8 3 8L 3 4ZM 2 3C 2 2.44772 2.44772 2 3 2L 3 -2C 0.238576 -2 -2 0.238576 -2 3L 2 3ZM 3 2C 3.55228 2 4 2.44772 4 3L 8 3C 8 0.238576 5.76142 -2 3 -2L 3 2Z"/>
</defs>
</svg>
