<svg width="42" height="45" viewBox="0 0 42 45" version="1.1" xmlns="http://www.w3.org/2000/svg" xmlns:xlink="http://www.w3.org/1999/xlink">
<title>Group</title>
<desc>Created using Figma</desc>
<g id="Canvas" transform="translate(-28546 207)">
<g id="Group">
<g id="Vector">
<use xlink:href="#path0_fill" transform="translate(28565.4 -190.5)" fill="#333333"/>
</g>
<g id="Vector">
<use xlink:href="#path1_fill" transform="translate(28562.4 -207)" fill="#333333"/>
</g>
<g id="Vector">
<use xlink:href="#path2_fill" transform="translate(28556.4 -196.5)" fill="#333333"/>
</g>
<g id="Vector">
<use xlink:href="#path3_fill" transform="translate(28552.7 -191.25)" fill="#333333"/>
</g>
<g id="Vector">
<use xlink:href="#path4_fill" transform="translate(28549 -186)" fill="#333333"/>
</g>
<g id="Vector">
<use xlink:href="#path5_fill" transform="translate(28546 -180.75)" fill="#333333"/>
</g>
<g id="Vector">
<use xlink:href="#path6_fill" transform="translate(28550.5 -175.5)" fill="#333333"/>
</g>
<g id="Vector">
<use xlink:href="#path7_fill" transform="translate(28554.9 -170.25)" fill="#333333"/>
</g>
</g>
</g>
<defs>
<path id="path0_fill" d="M 2.85939 11.9914C 3.63438 11.9307 4.34089 11.5324 4.79949 10.8972L 11.77 1.18918C 11.9837 0.891428 11.9517 0.480427 11.6926 0.219427C 11.4335 -0.0408227 11.0255 -0.0730728 10.73 0.141427L 1.092 7.16593C 0.463668 7.62643 0.0683529 8.33818 0.00805044 9.11893C -0.052252 9.89968 0.228414 10.6639 0.777092 11.2167C 1.27663 11.7207 1.95038 11.9997 2.65093 11.9997C 2.72017 11.9997 2.78941 11.9967 2.85939 11.9914ZM 1.49253 9.23593C 1.51859 8.89318 1.69279 8.58043 1.96676 8.37943L 7.84588 4.09468L 3.59418 10.0159C 3.39317 10.2942 3.08273 10.4689 2.7425 10.4959C 2.40377 10.5184 2.07099 10.3999 1.82903 10.1562C 1.58931 9.91393 1.46573 9.57793 1.49253 9.23593Z"/>
<path id="path1_fill" d="M 22.5142 14.673C 22.5067 14.6572 22.5067 14.6407 22.4985 14.625C 22.4896 14.61 22.4754 14.6018 22.4658 14.5875C 21.7131 13.287 20.8227 12.0772 19.8117 10.9808L 21.4108 9.3705L 22.4635 10.431L 25.6216 7.24875L 22.4635 4.06725L 19.3047 7.24875L 20.3582 8.31L 18.759 9.92025C 17.6706 8.90175 16.4705 8.004 15.1789 7.24575C 15.1647 7.236 15.1565 7.22175 15.1416 7.21275C 15.126 7.20375 15.1096 7.2045 15.094 7.19625C 12.7913 5.85975 10.2043 4.9695 7.446 4.64325L 7.446 3.75L 8.56271 3.75C 9.58934 3.75 10.4239 2.90925 10.4239 1.875C 10.4239 0.84075 9.58859 0 8.56196 0L 1.8617 0C 0.835066 0 0.000510641 0.84075 0.000510641 1.875C 0.000510641 2.90925 0.835066 3.75 1.8617 3.75L 2.97841 3.75L 2.97841 4.617C 2.17438 4.70325 1.37183 4.83525 0.578223 5.01825C 0.177696 5.1105 -0.0731912 5.51325 0.0191236 5.91675C 0.110694 6.32025 0.510477 6.57375 0.911004 6.48C 1.59592 6.32175 2.28754 6.2025 2.98064 6.12225L 3.77946 6.06C 4.02365 6.04125 4.24848 6.02775 4.46736 6.01725L 4.46736 7.5C 4.46736 7.91475 4.80014 8.25 5.21183 8.25C 5.62352 8.25 5.9563 7.91475 5.9563 7.5L 5.9563 6.0225C 8.75627 6.15225 11.3947 6.90975 13.7405 8.15625L 13.0065 9.4365C 12.801 9.79575 12.9231 10.254 13.279 10.461C 13.3958 10.5293 13.5239 10.5615 13.6504 10.5615C 13.908 10.5615 14.1582 10.4272 14.2959 10.1865L 15.0277 8.90925C 17.3572 10.398 19.336 12.3915 20.8138 14.7382L 19.5459 15.4755C 19.1908 15.6825 19.0687 16.1408 19.275 16.5C 19.4134 16.7407 19.6628 16.875 19.9204 16.875C 20.047 16.875 20.175 16.8427 20.2919 16.7745L 21.5627 16.035C 22.8172 18.432 23.5713 21.1335 23.6837 23.9993L 22.2134 23.9993C 21.8017 23.9993 21.4689 24.3345 21.4689 24.7493C 21.4689 25.164 21.8017 25.4993 22.2134 25.4993L 23.6837 25.4993C 23.5713 28.365 22.8172 31.0665 21.5627 33.4635L 20.2919 32.724C 19.936 32.517 19.4804 32.6385 19.275 32.9985C 19.0695 33.3577 19.1916 33.816 19.5474 34.023L 20.8153 34.7603C 19.3375 37.107 17.3587 39.1005 15.0292 40.5892L 14.2974 39.312C 14.0912 38.952 13.6348 38.8298 13.2804 39.0375C 12.9238 39.2445 12.8017 39.7035 13.008 40.062L 13.742 41.3423C 11.3962 42.5887 8.75776 43.3462 5.95779 43.476L 5.95779 42C 5.95779 41.5853 5.62501 41.25 5.21332 41.25C 4.80163 41.25 4.46885 41.5853 4.46885 42L 4.46885 43.482C 3.27992 43.4408 2.08727 43.2908 0.913236 43.0192C 0.512709 42.9225 0.112926 43.179 0.0213558 43.5825C -0.070959 43.986 0.17993 44.3887 0.580457 44.481C 2.06643 44.826 3.58441 45 5.09048 45C 5.12696 45 5.16195 44.9977 5.19843 44.997C 5.20364 44.997 5.20736 45 5.21183 45C 5.21779 45 5.223 44.9963 5.22895 44.9963C 8.80764 44.9715 12.1652 43.998 15.0702 42.3165C 15.0932 42.306 15.1178 42.3008 15.1401 42.2873C 15.155 42.2782 15.1632 42.264 15.1774 42.2542C 18.1843 40.4888 20.6969 37.9605 22.4531 34.9335C 22.4673 34.9132 22.4851 34.8975 22.4978 34.875C 22.5067 34.8592 22.506 34.8428 22.5134 34.827C 24.2138 31.857 25.1913 28.4175 25.1913 24.75C 25.1913 21.0825 24.2138 17.643 22.5142 14.673ZM 22.4628 6.18825L 23.5155 7.24875L 22.4628 8.31L 21.4094 7.24875L 22.4628 6.18825ZM 4.46736 4.51575L 4.46736 2.25L 1.8617 2.25C 1.65697 2.25 1.48946 2.08125 1.48946 1.875C 1.48946 1.66875 1.65697 1.5 1.8617 1.5L 8.56196 1.5C 8.7667 1.5 8.9342 1.66875 8.9342 1.875C 8.9342 2.08125 8.7667 2.25 8.56196 2.25L 5.9563 2.25L 5.9563 4.51575C 5.69723 4.50525 5.45006 4.5 5.21183 4.5C 5.19099 4.5 5.16716 4.5015 5.14632 4.5015C 5.12771 4.5015 5.10909 4.5 5.09048 4.5C 4.96839 4.5 4.84629 4.50825 4.7242 4.5105C 4.63784 4.51275 4.55669 4.512 4.46736 4.51575Z"/>
<path id="path2_fill" d="M 4.46684 0L 0.744474 0C 0.332779 0 1.64717e-07 0.33525 1.64717e-07 0.75C 1.64717e-07 1.16475 0.332779 1.5 0.744474 1.5L 4.46684 1.5C 4.87854 1.5 5.21132 1.16475 5.21132 0.75C 5.21132 0.33525 4.87854 0 4.46684 0Z"/>
<path id="path3_fill" d="M 8.18922 0L 0.744474 0C 0.33278 0 1.64717e-07 0.33525 1.64717e-07 0.75C 1.64717e-07 1.16475 0.33278 1.5 0.744474 1.5L 8.18922 1.5C 8.60091 1.5 8.93369 1.16475 8.93369 0.75C 8.93369 0.33525 8.60091 0 8.18922 0Z"/>
<path id="path4_fill" d="M 11.9116 0L 0.744474 0C 0.33278 0 1.64717e-07 0.33525 1.64717e-07 0.75C 1.64717e-07 1.16475 0.33278 1.5 0.744474 1.5L 11.9116 1.5C 12.3233 1.5 12.6561 1.16475 12.6561 0.75C 12.6561 0.33525 12.3233 0 11.9116 0Z"/>
<path id="path5_fill" d="M 14.8895 0L 0.744474 0C 0.33278 0 -1.27797e-08 0.33525 -1.27797e-08 0.75C -1.27797e-08 1.16475 0.33278 1.5 0.744474 1.5L 14.8895 1.5C 15.3012 1.5 15.634 1.16475 15.634 0.75C 15.634 0.33525 15.3012 0 14.8895 0Z"/>
<path id="path6_fill" d="M 10.4226 0L 0.744474 0C 0.33278 0 1.64717e-07 0.33525 1.64717e-07 0.75C 1.64717e-07 1.16475 0.33278 1.5 0.744474 1.5L 10.4226 1.5C 10.8343 1.5 11.1671 1.16475 11.1671 0.75C 11.1671 0.33525 10.8343 0 10.4226 0Z"/>
<path id="path7_fill" d="M 5.95579 0L 0.744474 0C 0.33278 0 1.64717e-07 0.33525 1.64717e-07 0.75C 1.64717e-07 1.16475 0.33278 1.5 0.744474 1.5L 5.95579 1.5C 6.36749 1.5 6.70027 1.16475 6.70027 0.75C 6.70027 0.33525 6.36749 0 5.95579 0Z"/>
</defs>
</svg>
