<svg width="48" height="48" viewBox="0 0 48 48" version="1.1" xmlns="http://www.w3.org/2000/svg" xmlns:xlink="http://www.w3.org/1999/xlink">
<title>Ellipse 14</title>
<desc>Created using Figma</desc>
<g id="Canvas" transform="translate(-11527 -3837)">
<rect x="11527" y="3837" width="48" height="48" fill="#E5E5E5"/>
<clipPath id="clip-0" clip-rule="evenodd">
<path d="M 10999 3259L 12439 3259L 12439 7351L 10999 7351L 10999 3259Z" fill="#FFFFFF"/>
</clipPath>
<g id="&#208;&#154;&#208;&#190;&#208;&#189;&#209;&#130;&#208;&#176;&#208;&#186;&#209;&#130; 2.1(Open Sans)" clip-path="url(#clip-0)">
<path d="M 10999 3259L 12439 3259L 12439 7351L 10999 7351L 10999 3259Z" fill="#FFFFFF"/>
<g id="Group">
<g id="Ellipse 14">
<use xlink:href="#path0_fill" transform="translate(11527 3837)" fill="#F1F1F1"/>
</g>
<g id="ic_place_black_18px">
<g id="Vector">
<use xlink:href="#path1_fill" transform="translate(11544 3851)" fill="#E91A47"/>
</g>
</g>
</g>
</g>
</g>
<defs>
<path id="path0_fill" d="M 48 24C 48 37.2548 37.2548 48 24 48C 10.7452 48 0 37.2548 0 24C 0 10.7452 10.7452 0 24 0C 37.2548 0 48 10.7452 48 24Z"/>
<path id="path1_fill" d="M 7 0C 3.13 0 0 3.13 0 7C 0 12.25 7 20 7 20C 7 20 14 12.25 14 7C 14 3.13 10.87 0 7 0ZM 7 9.5C 5.62 9.5 4.5 8.38 4.5 7C 4.5 5.62 5.62 4.5 7 4.5C 8.38 4.5 9.5 5.62 9.5 7C 9.5 8.38 8.38 9.5 7 9.5Z"/>
</defs>
</svg>
