<svg width="48" height="48" viewBox="0 0 48 48" version="1.1" xmlns="http://www.w3.org/2000/svg" xmlns:xlink="http://www.w3.org/1999/xlink">
<title>Ellipse 14</title>
<desc>Created using Figma</desc>
<g id="Canvas" transform="translate(-11933 -3837)">
<rect x="11933" y="3837" width="48" height="48" fill="#E5E5E5"/>
<clipPath id="clip-0" clip-rule="evenodd">
<path d="M 10999 3259L 12439 3259L 12439 7351L 10999 7351L 10999 3259Z" fill="#FFFFFF"/>
</clipPath>
<g id="&#208;&#154;&#208;&#190;&#208;&#189;&#209;&#130;&#208;&#176;&#208;&#186;&#209;&#130; 2.1(Open Sans)" clip-path="url(#clip-0)">
<path d="M 10999 3259L 12439 3259L 12439 7351L 10999 7351L 10999 3259Z" fill="#FFFFFF"/>
<g id="Group">
<g id="Ellipse 14">
<use xlink:href="#path0_fill" transform="translate(11933 3837)" fill="#F1F1F1"/>
</g>
<g id="ic_email_black_24px 2">
<g id="Vector">
<use xlink:href="#path1_fill" transform="translate(11947 3853)" fill="#E91A47"/>
</g>
</g>
</g>
</g>
</g>
<defs>
<path id="path0_fill" d="M 48 24C 48 37.2548 37.2548 48 24 48C 10.7452 48 0 37.2548 0 24C 0 10.7452 10.7452 0 24 0C 37.2548 0 48 10.7452 48 24Z"/>
<path id="path1_fill" d="M 18 0L 2 0C 0.9 0 0.00999999 0.9 0.00999999 2L 0 14C 0 15.1 0.9 16 2 16L 18 16C 19.1 16 20 15.1 20 14L 20 2C 20 0.9 19.1 0 18 0ZM 18 4L 10 9L 2 4L 2 2L 10 7L 18 2L 18 4Z"/>
</defs>
</svg>
