<svg width="50" height="51" viewBox="0 0 50 51" version="1.1" xmlns="http://www.w3.org/2000/svg" xmlns:xlink="http://www.w3.org/1999/xlink">
<title>customer-service 2</title>
<desc>Created using Figma</desc>
<g id="Canvas" transform="translate(-39795 -16736)">
<g id="customer-service 2">
<g id="Group">
<g id="Group">
<g id="Vector">
<use xlink:href="#path0_fill" transform="translate(39795 16742.2)" fill="#333333"/>
</g>
</g>
<g id="Vector">
<use xlink:href="#path1_fill" transform="translate(39813.1 16736)" fill="#333333"/>
</g>
<g id="Group">
<g id="Vector">
<use xlink:href="#path2_fill" transform="translate(39818.3 16748.8)" fill="#333333"/>
</g>
<g id="Vector">
<use xlink:href="#path3_fill" transform="translate(39827.5 16749)" fill="#333333"/>
</g>
</g>
</g>
</g>
</g>
<defs>
<path id="path0_fill" d="M 35.8247 44.7632C 33.9702 44.7632 31.7303 44.2964 29.2686 43.3629C 23.8669 41.3182 17.9914 37.277 12.7231 31.986C 7.45326 26.6951 3.43082 20.7929 1.39336 15.3695C -0.459692 10.4384 -0.46419 6.38963 1.37837 4.53916C 1.64373 4.27115 1.91509 3.98507 2.19395 3.69146C 3.87909 1.91477 5.81459 -0.10283 8.30182 0.00407288C 10.0409 0.0763451 11.7246 1.16043 13.4502 3.31354C 18.5416 9.67651 16.2478 11.944 13.5911 14.573L 13.1219 15.0397C 12.6871 15.4764 11.864 17.4985 19.5086 25.1744C 22.0033 27.6798 24.1307 29.5137 25.8308 30.6234C 26.9028 31.3235 28.8143 32.379 29.5999 31.59L 30.0722 31.1112C 32.6883 28.4462 34.9462 26.1486 41.2774 31.2603C 43.4228 32.9903 44.4993 34.6812 44.5727 36.4293C 44.6762 38.9603 42.6687 40.874 40.8981 42.5649C 40.6073 42.8434 40.3209 43.1145 40.0556 43.381C 39.135 44.3009 37.6718 44.7632 35.8247 44.7632ZM 8.12491 1.50523C 6.33333 1.50523 4.71416 3.21567 3.28239 4.72887C 2.99454 5.03 2.71418 5.32662 2.43982 5.60216C 1.06653 6.97985 1.20745 10.6055 2.79664 14.8379C 4.76063 20.0656 8.66164 25.7782 13.783 30.923C 18.9044 36.0649 24.591 39.9842 29.7978 41.9551C 34.0152 43.5541 37.6223 43.6896 38.9956 42.3119C 39.27 42.0364 39.5638 41.7563 39.8652 41.4673C 41.4049 39.9977 43.15 38.334 43.0735 36.4865C 43.0225 35.2157 42.102 33.8516 40.3374 32.4287C 35.0601 28.1692 33.5864 29.6718 31.1396 32.1637L 30.6599 32.65C 29.492 33.826 27.5909 33.564 25.0138 31.8821C 23.2267 30.7153 21.0168 28.8136 18.4486 26.2344C 12.1054 19.8639 10.0754 15.9672 12.0619 13.9692L 12.5387 13.4949C 15.0244 11.0376 16.5251 9.55455 12.2823 4.25308C 10.864 2.48391 9.5057 1.55943 8.24035 1.50673C 8.20137 1.50523 8.16239 1.50523 8.12491 1.50523Z"/>
<path id="path1_fill" d="M 22.6902 38.8328C 22.4593 38.8328 22.2314 38.7259 22.0845 38.5241C 21.8416 38.1868 21.9151 37.7171 22.2479 37.4716C 23.8011 36.3334 25.1819 34.9752 26.3513 33.4319C 28.9899 29.9493 30.3842 25.7876 30.3842 21.3986C 30.3857 10.4298 21.5013 1.50567 10.5794 1.50567C 7.27056 1.50567 3.99474 2.34282 1.10872 3.92227C 0.745903 4.12403 0.290136 3.99003 0.0922375 3.62265C -0.10716 3.25827 0.027771 2.80055 0.390585 2.6018C 3.49699 0.900392 7.02019 0 10.5794 0C 22.3274 0 31.885 9.59866 31.885 21.3986C 31.885 26.1204 30.3842 30.5952 27.5432 34.3444C 26.2868 36.0036 24.8026 37.4641 23.1324 38.6897C 23.0005 38.7861 22.8446 38.8328 22.6902 38.8328Z"/>
<path id="path2_fill" d="M 1.19639 0.439716C 2.08993 0.168658 2.94749 -9.19114e-08 3.87252 -9.19114e-08C 6.26529 -9.19114e-08 7.72855 1.20018 7.72855 3.24667C 7.72855 4.37909 7.10487 5.24196 5.77505 6.12139L 3.09891 7.92994C 2.27284 8.48862 1.90253 9.36806 1.90253 10.3153L 7.37323 10.3153C 7.49167 10.3153 7.55913 10.383 7.55913 10.5005L 7.55913 11.8031C 7.55913 11.9205 7.49167 11.9883 7.37323 11.9883L 0.184405 11.9883C 0.0674652 11.9883 -4.5753e-07 11.9205 -4.5753e-07 11.8031L -4.5753e-07 10.9914C -4.5753e-07 8.92834 0.673155 7.44053 2.18738 6.44214L 4.84852 4.66671C 5.52168 4.20892 5.82302 3.76921 5.82302 3.24667C 5.82302 2.29947 5.0824 1.6911 3.86952 1.6911C 3.11241 1.6911 2.38828 1.82663 1.7496 2.04498L 0.772104 2.36724C 0.673154 2.40037 0.587698 2.34917 0.553216 2.24827L 0.133432 0.980325C 0.0824584 0.879432 0.133432 0.793597 0.250373 0.760468L 1.19639 0.439716Z"/>
<path id="path3_fill" d="M 8.93991 8.60374C 8.93991 8.72267 8.87245 8.79042 8.75551 8.79042L 7.71204 8.79042L 7.71204 11.6312C 7.71204 11.7487 7.64458 11.8164 7.52614 11.8164L 6.01192 11.8164C 5.89348 11.8164 5.82601 11.7487 5.82601 11.6312L 5.82601 8.79042L 0.184405 8.79042C 0.0674645 8.79042 3.66023e-07 8.72267 3.66023e-07 8.60374L 3.66023e-07 7.18409C 3.66023e-07 7.08322 0.0179899 7.01547 0.0854553 6.94773C 0.50524 6.45845 0.875551 6.00079 1.28034 5.44377L 4.39574 1.41965C 4.71508 0.996618 4.96695 0.590143 5.2533 0.117426C 5.32077 0.0331202 5.38823 -2.1823e-07 5.48868 -2.1823e-07L 7.52464 -2.1823e-07C 7.64308 -2.1823e-07 7.71054 0.067746 7.71054 0.185172L 7.71054 7.11634L 8.75401 7.11634C 8.87095 7.11634 8.93841 7.18409 8.93841 7.30302L 8.93841 8.60374L 8.93991 8.60374ZM 5.82601 4.19122C 5.82601 3.65076 5.85899 3.10879 5.92646 2.5337C 5.95944 2.33046 5.80952 2.27928 5.67459 2.46595L 2.94599 5.9481C 2.7271 6.2522 2.40776 6.64061 2.17238 6.86041C 2.05395 6.9959 2.12141 7.11333 2.25634 7.11333L 5.82601 7.11333L 5.82601 4.19122Z"/>
</defs>
</svg>
