<svg width="31" height="40" viewBox="0 0 31 40" version="1.1" xmlns="http://www.w3.org/2000/svg" xmlns:xlink="http://www.w3.org/1999/xlink">
<title>file 2</title>
<desc>Created using Figma</desc>
<g id="Canvas" transform="translate(-39760 -996)">
<rect x="39760" y="996" width="31" height="40" fill="#E5E5E5"/>
<clipPath id="clip-0" clip-rule="evenodd">
<path d="M 39337 -938L 40777 -938L 40777 17598L 39337 17598L 39337 -938Z" fill="#FFFFFF"/>
</clipPath>
<g id="&#208;&#154;&#208;&#176;&#209;&#128;&#209;&#130;&#208;&#190;&#209;&#135;&#208;&#186;&#208;&#176; &#209;&#130;&#208;&#190;&#208;&#178;&#208;&#176;&#209;&#128;&#208;&#176;" clip-path="url(#clip-0)">
<path d="M 39337 -938L 40777 -938L 40777 17598L 39337 17598L 39337 -938Z" fill="#FFFFFF"/>
<g id="&#208;&#148;&#208;&#190;&#208;&#186;&#209;&#131;&#208;&#188;&#208;&#181;&#208;&#189;&#209;&#130;&#209;&#139;">
<g id="Group">
<g id="file 2">
<g id="Group">
<g id="Group">
<g id="Vector">
<use xlink:href="#path0_fill" transform="translate(39760 996)" fill="#333333"/>
</g>
</g>
</g>
</g>
<g id="Line 9">
<use xlink:href="#path1_stroke" transform="matrix(1 -2.44929e-16 2.44929e-16 1 39762 1014)" fill="#333333"/>
</g>
<g id="Line 9">
<use xlink:href="#path1_stroke" transform="matrix(1 -2.44929e-16 2.44929e-16 1 39762 1027)" fill="#333333"/>
</g>
<g id="XLs">
<use xlink:href="#path2_fill" transform="translate(39767 1013)" fill="#E02500"/>
</g>
</g>
</g>
</g>
</g>
<defs>
<path id="path0_fill" d="M 30.9984 10.1331C 30.9912 9.899 30.8948 9.67057 30.7166 9.49814L 21.1832 0.274297C 21.1828 0.273907 21.1824 0.273751 21.1821 0.27336C 21.007 0.104453 20.7655 0 20.4988 0L 2.03788 0C 0.91413 0 7.39255e-08 0.884377 7.39255e-08 1.97164L 7.39255e-08 38.0284C 7.39255e-08 39.1155 0.914049 40 2.0378 40L 28.9622 40C 30.0859 40 31 39.1156 31 38.0284L 31 10.1603C 31.0001 10.1511 30.999 10.1422 30.9984 10.1331ZM 21.4668 3.19774L 27.6952 9.22392L 21.8753 9.22392C 21.65 9.22392 21.4668 9.04666 21.4668 8.82869L 21.4668 3.19774ZM 29.0642 38.0285C 29.0641 38.0827 29.0184 38.1269 28.9623 38.1269L 2.03788 38.1269C 1.98176 38.1269 1.93606 38.0827 1.93606 38.0284L 1.93606 1.97164C 1.93606 1.91735 1.98176 1.87313 2.03788 1.87313L 19.5309 1.87313L 19.5309 8.82869C 19.5309 10.0794 20.5826 11.0971 21.8753 11.0971L 29.0643 11.0971L 29.0643 38.0285L 29.0642 38.0285Z"/>
<path id="path1_stroke" d="M 0 0L 27 0L 27 -1L 0 -1L 0 0Z"/>
<path id="path2_fill" d="M 6.00293 10L 4.44727 10L 2.95312 7.56982L 1.45898 10L 0 10L 2.13135 6.68652L 0.13623 3.5752L 1.63916 3.5752L 3.02344 5.88672L 4.38135 3.5752L 5.84912 3.5752L 3.83203 6.76123L 6.00293 10ZM 6.81152 10L 6.81152 3.5752L 8.17383 3.5752L 8.17383 8.875L 10.7798 8.875L 10.7798 10L 6.81152 10ZM 15.6929 8.21582C 15.6929 8.7959 15.4834 9.25293 15.0645 9.58691C 14.6484 9.9209 14.0684 10.0879 13.3242 10.0879C 12.6387 10.0879 12.0322 9.95898 11.5049 9.70117L 11.5049 8.43555C 11.9385 8.62891 12.3047 8.76514 12.6035 8.84424C 12.9053 8.92334 13.1807 8.96289 13.4297 8.96289C 13.7285 8.96289 13.957 8.90576 14.1152 8.7915C 14.2764 8.67725 14.3569 8.50732 14.3569 8.28174C 14.3569 8.15576 14.3218 8.04443 14.2515 7.94775C 14.1812 7.84814 14.0771 7.75293 13.9395 7.66211C 13.8047 7.57129 13.5278 7.42627 13.1089 7.22705C 12.7163 7.04248 12.4219 6.86523 12.2256 6.69531C 12.0293 6.52539 11.8726 6.32764 11.7554 6.10205C 11.6382 5.87646 11.5796 5.61279 11.5796 5.31104C 11.5796 4.74268 11.7715 4.2959 12.1553 3.9707C 12.542 3.64551 13.0752 3.48291 13.7549 3.48291C 14.0889 3.48291 14.4067 3.52246 14.7085 3.60156C 15.0132 3.68066 15.3311 3.79199 15.6621 3.93555L 15.2227 4.99463C 14.8799 4.854 14.5957 4.75586 14.3701 4.7002C 14.1475 4.64453 13.9277 4.6167 13.7109 4.6167C 13.4531 4.6167 13.2554 4.67676 13.1177 4.79688C 12.98 4.91699 12.9111 5.07373 12.9111 5.26709C 12.9111 5.38721 12.939 5.49268 12.9946 5.5835C 13.0503 5.67139 13.1382 5.75781 13.2583 5.84277C 13.3813 5.9248 13.6699 6.07422 14.124 6.29102C 14.7246 6.57812 15.1362 6.8667 15.3589 7.15674C 15.5815 7.44385 15.6929 7.79687 15.6929 8.21582Z"/>
</defs>
</svg>
