<svg width="31" height="40" viewBox="0 0 31 40" version="1.1" xmlns="http://www.w3.org/2000/svg" xmlns:xlink="http://www.w3.org/1999/xlink">
<title>file 2</title>
<desc>Created using Figma</desc>
<g id="Canvas" transform="translate(-39760 -1082)">
<rect x="39760" y="1082" width="31" height="40" fill="#E5E5E5"/>
<clipPath id="clip-0" clip-rule="evenodd">
<path d="M 39337 -938L 40777 -938L 40777 17598L 39337 17598L 39337 -938Z" fill="#FFFFFF"/>
</clipPath>
<g id="&#208;&#154;&#208;&#176;&#209;&#128;&#209;&#130;&#208;&#190;&#209;&#135;&#208;&#186;&#208;&#176; &#209;&#130;&#208;&#190;&#208;&#178;&#208;&#176;&#209;&#128;&#208;&#176;" clip-path="url(#clip-0)">
<path d="M 39337 -938L 40777 -938L 40777 17598L 39337 17598L 39337 -938Z" fill="#FFFFFF"/>
<g id="&#208;&#148;&#208;&#190;&#208;&#186;&#209;&#131;&#208;&#188;&#208;&#181;&#208;&#189;&#209;&#130;&#209;&#139;">
<g id="Group">
<g id="file 2">
<g id="Group">
<g id="Group">
<g id="Vector">
<use xlink:href="#path0_fill" transform="translate(39760 1082)" fill="#333333"/>
</g>
</g>
</g>
</g>
<g id="Line 15">
<use xlink:href="#path1_stroke" transform="translate(39761 1113)" fill="#333333"/>
</g>
<g id="Line 10">
<use xlink:href="#path1_stroke" transform="translate(39761 1100)" fill="#333333"/>
</g>
</g>
</g>
</g>
</g>
<defs>
<path id="path0_fill" d="M 30.9984 10.1331C 30.9912 9.899 30.8948 9.67057 30.7166 9.49814L 21.1832 0.274297C 21.1828 0.273907 21.1824 0.273751 21.1821 0.27336C 21.007 0.104453 20.7655 0 20.4988 0L 2.03788 0C 0.91413 0 7.39255e-08 0.884377 7.39255e-08 1.97164L 7.39255e-08 38.0284C 7.39255e-08 39.1155 0.914049 40 2.0378 40L 28.9622 40C 30.0859 40 31 39.1156 31 38.0284L 31 10.1603C 31.0001 10.1511 30.999 10.1422 30.9984 10.1331ZM 21.4668 3.19774L 27.6952 9.22392L 21.8753 9.22392C 21.65 9.22392 21.4668 9.04666 21.4668 8.82869L 21.4668 3.19774ZM 29.0642 38.0285C 29.0641 38.0827 29.0184 38.1269 28.9623 38.1269L 2.03788 38.1269C 1.98176 38.1269 1.93606 38.0827 1.93606 38.0284L 1.93606 1.97164C 1.93606 1.91735 1.98176 1.87313 2.03788 1.87313L 19.5309 1.87313L 19.5309 8.82869C 19.5309 10.0794 20.5826 11.0971 21.8753 11.0971L 29.0643 11.0971L 29.0643 38.0285L 29.0642 38.0285Z"/>
<path id="path1_stroke" d="M 0 0L 29 0L 29 -1L 0 -1L 0 0Z"/>
</defs>
</svg>
