<svg width="31" height="40" viewBox="0 0 31 40" version="1.1" xmlns="http://www.w3.org/2000/svg" xmlns:xlink="http://www.w3.org/1999/xlink">
<title>file 2</title>
<desc>Created using Figma</desc>
<g id="Canvas" transform="translate(-40125 -1082)">
<rect x="40125" y="1082" width="31" height="40" fill="#E5E5E5"/>
<clipPath id="clip-0" clip-rule="evenodd">
<path d="M 39337 -938L 40777 -938L 40777 17598L 39337 17598L 39337 -938Z" fill="#FFFFFF"/>
</clipPath>
<g id="&#208;&#154;&#208;&#176;&#209;&#128;&#209;&#130;&#208;&#190;&#209;&#135;&#208;&#186;&#208;&#176; &#209;&#130;&#208;&#190;&#208;&#178;&#208;&#176;&#209;&#128;&#208;&#176;" clip-path="url(#clip-0)">
<path d="M 39337 -938L 40777 -938L 40777 17598L 39337 17598L 39337 -938Z" fill="#FFFFFF"/>
<g id="&#208;&#148;&#208;&#190;&#208;&#186;&#209;&#131;&#208;&#188;&#208;&#181;&#208;&#189;&#209;&#130;&#209;&#139;">
<g id="Group">
<g id="file 2">
<g id="Group">
<g id="Group">
<g id="Vector">
<use xlink:href="#path0_fill" transform="translate(40125 1082)" fill="#333333"/>
</g>
</g>
</g>
</g>
<g id="Line 15">
<use xlink:href="#path1_stroke" transform="translate(40126 1113)" fill="#333333"/>
</g>
<g id="Line 10">
<use xlink:href="#path1_stroke" transform="translate(40126 1100)" fill="#333333"/>
</g>
<g id="rar">
<use xlink:href="#path2_fill" transform="translate(40131 1099)" fill="#E02500"/>
</g>
</g>
</g>
</g>
</g>
<defs>
<path id="path0_fill" d="M 30.9984 10.1331C 30.9912 9.899 30.8948 9.67057 30.7166 9.49814L 21.1832 0.274297C 21.1828 0.273907 21.1824 0.273751 21.1821 0.27336C 21.007 0.104453 20.7655 0 20.4988 0L 2.03788 0C 0.91413 0 7.39255e-08 0.884377 7.39255e-08 1.97164L 7.39255e-08 38.0284C 7.39255e-08 39.1155 0.914049 40 2.0378 40L 28.9622 40C 30.0859 40 31 39.1156 31 38.0284L 31 10.1603C 31.0001 10.1511 30.999 10.1422 30.9984 10.1331ZM 21.4668 3.19774L 27.6952 9.22392L 21.8753 9.22392C 21.65 9.22392 21.4668 9.04666 21.4668 8.82869L 21.4668 3.19774ZM 29.0642 38.0285C 29.0641 38.0827 29.0184 38.1269 28.9623 38.1269L 2.03788 38.1269C 1.98176 38.1269 1.93606 38.0827 1.93606 38.0284L 1.93606 1.97164C 1.93606 1.91735 1.98176 1.87313 2.03788 1.87313L 19.5309 1.87313L 19.5309 8.82869C 19.5309 10.0794 20.5826 11.0971 21.8753 11.0971L 29.0643 11.0971L 29.0643 38.0285L 29.0642 38.0285Z"/>
<path id="path1_stroke" d="M 0 0L 29 0L 29 -1L 0 -1L 0 0Z"/>
<path id="path2_fill" d="M 2.1709 6.42725L 2.61035 6.42725C 3.04102 6.42725 3.35889 6.35547 3.56396 6.21191C 3.76904 6.06836 3.87158 5.84277 3.87158 5.53516C 3.87158 5.23047 3.76611 5.01367 3.55518 4.88477C 3.34717 4.75586 3.02344 4.69141 2.58398 4.69141L 2.1709 4.69141L 2.1709 6.42725ZM 2.1709 7.53467L 2.1709 10L 0.808594 10L 0.808594 3.5752L 2.68066 3.5752C 3.55371 3.5752 4.19971 3.73486 4.61865 4.0542C 5.0376 4.37061 5.24707 4.85254 5.24707 5.5C 5.24707 5.87793 5.14307 6.21484 4.93506 6.51074C 4.72705 6.80371 4.43262 7.03369 4.05176 7.20068C 5.01855 8.64502 5.64844 9.57812 5.94141 10L 4.42969 10L 2.896 7.53467L 2.1709 7.53467ZM 10.6831 10L 10.2173 8.4707L 7.875 8.4707L 7.40918 10L 5.94141 10L 8.20898 3.54883L 9.87451 3.54883L 12.1509 10L 10.6831 10ZM 9.89209 7.32812C 9.46143 5.94238 9.21826 5.15869 9.1626 4.97705C 9.10986 4.79541 9.07178 4.65186 9.04834 4.54639C 8.95166 4.92139 8.6748 5.84863 8.21777 7.32812L 9.89209 7.32812ZM 14.3262 6.42725L 14.7656 6.42725C 15.1963 6.42725 15.5142 6.35547 15.7192 6.21191C 15.9243 6.06836 16.0269 5.84277 16.0269 5.53516C 16.0269 5.23047 15.9214 5.01367 15.7104 4.88477C 15.5024 4.75586 15.1787 4.69141 14.7393 4.69141L 14.3262 4.69141L 14.3262 6.42725ZM 14.3262 7.53467L 14.3262 10L 12.9639 10L 12.9639 3.5752L 14.8359 3.5752C 15.709 3.5752 16.355 3.73486 16.7739 4.0542C 17.1929 4.37061 17.4023 4.85254 17.4023 5.5C 17.4023 5.87793 17.2983 6.21484 17.0903 6.51074C 16.8823 6.80371 16.5879 7.03369 16.207 7.20068C 17.1738 8.64502 17.8037 9.57812 18.0967 10L 16.585 10L 15.0513 7.53467L 14.3262 7.53467Z"/>
</defs>
</svg>
