<svg width="31" height="40" viewBox="0 0 31 40" version="1.1" xmlns="http://www.w3.org/2000/svg" xmlns:xlink="http://www.w3.org/1999/xlink">
<title>file 2</title>
<desc>Created using Figma</desc>
<g id="Canvas" transform="translate(-40125 -996)">
<rect x="40125" y="996" width="31" height="40" fill="#E5E5E5"/>
<clipPath id="clip-0" clip-rule="evenodd">
<path d="M 39337 -938L 40777 -938L 40777 17598L 39337 17598L 39337 -938Z" fill="#FFFFFF"/>
</clipPath>
<g id="&#208;&#154;&#208;&#176;&#209;&#128;&#209;&#130;&#208;&#190;&#209;&#135;&#208;&#186;&#208;&#176; &#209;&#130;&#208;&#190;&#208;&#178;&#208;&#176;&#209;&#128;&#208;&#176;" clip-path="url(#clip-0)">
<path d="M 39337 -938L 40777 -938L 40777 17598L 39337 17598L 39337 -938Z" fill="#FFFFFF"/>
<g id="&#208;&#148;&#208;&#190;&#208;&#186;&#209;&#131;&#208;&#188;&#208;&#181;&#208;&#189;&#209;&#130;&#209;&#139;">
<g id="Group">
<g id="file 2">
<g id="Group">
<g id="Group">
<g id="Vector">
<use xlink:href="#path0_fill" transform="translate(40125 996)" fill="#333333"/>
</g>
</g>
</g>
</g>
<g id="Line 9">
<use xlink:href="#path1_stroke" transform="matrix(1 -2.44929e-16 2.44929e-16 1 40126 1014)" fill="#333333"/>
</g>
<g id="Line 9">
<use xlink:href="#path1_stroke" transform="matrix(1 -2.44929e-16 2.44929e-16 1 40126 1027)" fill="#333333"/>
</g>
<g id="Doc">
<use xlink:href="#path2_fill" transform="translate(40131 1013)" fill="#E02500"/>
</g>
</g>
</g>
</g>
</g>
<defs>
<path id="path0_fill" d="M 30.9984 10.1331C 30.9912 9.899 30.8948 9.67057 30.7166 9.49814L 21.1832 0.274297C 21.1828 0.273907 21.1824 0.273751 21.1821 0.27336C 21.007 0.104453 20.7655 0 20.4988 0L 2.03788 0C 0.91413 0 7.39255e-08 0.884377 7.39255e-08 1.97164L 7.39255e-08 38.0284C 7.39255e-08 39.1155 0.914049 40 2.0378 40L 28.9622 40C 30.0859 40 31 39.1156 31 38.0284L 31 10.1603C 31.0001 10.1511 30.999 10.1422 30.9984 10.1331ZM 21.4668 3.19774L 27.6952 9.22392L 21.8753 9.22392C 21.65 9.22392 21.4668 9.04666 21.4668 8.82869L 21.4668 3.19774ZM 29.0642 38.0285C 29.0641 38.0827 29.0184 38.1269 28.9623 38.1269L 2.03788 38.1269C 1.98176 38.1269 1.93606 38.0827 1.93606 38.0284L 1.93606 1.97164C 1.93606 1.91735 1.98176 1.87313 2.03788 1.87313L 19.5309 1.87313L 19.5309 8.82869C 19.5309 10.0794 20.5826 11.0971 21.8753 11.0971L 29.0643 11.0971L 29.0643 38.0285L 29.0642 38.0285Z"/>
<path id="path1_stroke" d="M 0 0L 29 0L 29 -1L 0 -1L 0 0Z"/>
<path id="path2_fill" d="M 6.13916 6.72607C 6.13916 7.78369 5.8374 8.59375 5.23389 9.15625C 4.6333 9.71875 3.76465 10 2.62793 10L 0.808594 10L 0.808594 3.5752L 2.82568 3.5752C 3.87451 3.5752 4.68896 3.85205 5.26904 4.40576C 5.84912 4.95947 6.13916 5.73291 6.13916 6.72607ZM 4.72412 6.76123C 4.72412 5.38135 4.11475 4.69141 2.896 4.69141L 2.1709 4.69141L 2.1709 8.875L 2.75537 8.875C 4.06787 8.875 4.72412 8.17041 4.72412 6.76123ZM 13.3022 6.77881C 13.3022 7.84229 13.0386 8.65967 12.5112 9.23096C 11.9839 9.80225 11.228 10.0879 10.2437 10.0879C 9.25928 10.0879 8.50342 9.80225 7.97607 9.23096C 7.44873 8.65967 7.18506 7.83936 7.18506 6.77002C 7.18506 5.70068 7.44873 4.88477 7.97607 4.32227C 8.50635 3.75684 9.26514 3.47412 10.2524 3.47412C 11.2397 3.47412 11.9941 3.7583 12.5156 4.32666C 13.04 4.89502 13.3022 5.7124 13.3022 6.77881ZM 8.61328 6.77881C 8.61328 7.49658 8.74951 8.03711 9.02197 8.40039C 9.29443 8.76367 9.70166 8.94531 10.2437 8.94531C 11.3306 8.94531 11.874 8.22314 11.874 6.77881C 11.874 5.33154 11.3335 4.60791 10.2524 4.60791C 9.71045 4.60791 9.30176 4.79102 9.02637 5.15723C 8.75098 5.52051 8.61328 6.06104 8.61328 6.77881ZM 17.3628 4.6167C 16.8501 4.6167 16.4531 4.81006 16.1719 5.19678C 15.8906 5.58057 15.75 6.1167 15.75 6.80518C 15.75 8.23779 16.2876 8.9541 17.3628 8.9541C 17.814 8.9541 18.3604 8.84131 19.002 8.61572L 19.002 9.7583C 18.4746 9.97803 17.8857 10.0879 17.2354 10.0879C 16.3008 10.0879 15.5859 9.80518 15.0908 9.23975C 14.5957 8.67139 14.3481 7.85693 14.3481 6.79639C 14.3481 6.12842 14.4697 5.54395 14.7129 5.04297C 14.9561 4.53906 15.3047 4.15381 15.7588 3.88721C 16.2158 3.61768 16.7505 3.48291 17.3628 3.48291C 17.9868 3.48291 18.6138 3.63379 19.2437 3.93555L 18.8042 5.04297C 18.564 4.92871 18.3223 4.8291 18.0791 4.74414C 17.8359 4.65918 17.5972 4.6167 17.3628 4.6167Z"/>
</defs>
</svg>
