<svg width="24" height="33" viewBox="0 0 24 33" version="1.1" xmlns="http://www.w3.org/2000/svg" xmlns:xlink="http://www.w3.org/1999/xlink">
<title>facebook-placeholder-for-locate-places-on-maps</title>
<desc>Created using Figma</desc>
<g id="Canvas" transform="translate(-101 -4840)">
<g id="facebook-placeholder-for-locate-places-on-maps">
<g id="Group">
<g id="Facebook Places">
<use xlink:href="#path0_stroke" transform="translate(102 4841)" fill="#333333"/>
</g>
</g>
</g>
</g>
<defs>
<path id="path0_stroke" d="M 21.4803 7.7156L 20.9981 7.84812L 21.0017 7.86101L 21.0059 7.87369L 21.4803 7.7156ZM 20.965 6.47557L 20.5054 6.67257L 20.5078 6.67794L 20.965 6.47557ZM -9.06352e-08 9.61663L -0.497024 9.56216L -0.5 9.58931L -0.5 9.61663L -9.06352e-08 9.61663ZM 0.0474446 11.7388L -0.449503 11.7946L -0.448452 11.8027L 0.0474446 11.7388ZM 4.82718 21.1903L 4.39978 21.4498L 4.40026 21.4505L 4.82718 21.1903ZM 11.0062 31L 10.5846 31.2687L 11.0182 31.9492L 11.4345 31.2579L 11.0062 31ZM 14.8055 24.6623L 15.2334 24.9209L 15.2376 24.914L 15.2415 24.907L 14.8055 24.6623ZM 15.8814 22.8708L 15.4506 22.617L 15.4505 22.6172L 15.8814 22.8708ZM 16.7404 21.7412L 16.3046 21.496L 16.3028 21.4994L 16.7404 21.7412ZM 22 9.53432L 21.5 9.53422L 21.5 9.53432L 22 9.53432ZM 7.20179 11.7664L 6.73385 11.9429L 6.73804 11.9533L 7.20179 11.7664ZM 15.0897 10.3889L 15.5897 10.3889L 15.0897 10.3889ZM 21.9624 7.58308C 21.8318 7.11872 21.5861 6.64407 21.4222 6.27319L 20.5078 6.67794C 20.6854 7.07869 20.9014 7.48536 20.9981 7.84812L 21.9624 7.58308ZM 21.4245 6.27857C 19.2811 1.27812 14.5966 -0.5 10.8514 -0.5L 10.8514 0.5C 14.3166 0.5 18.562 2.13877 20.5054 6.67256L 21.4245 6.27857ZM 10.8514 -0.5C 5.82821 -0.5 0.246329 2.77957 -0.497024 9.56216L 0.497024 9.6711C 1.173 3.50327 6.22215 0.5 10.8514 0.5L 10.8514 -0.5ZM -0.5 9.61663L -0.5 10.9395L 0.5 10.9395L 0.5 9.61663L -0.5 9.61663ZM -0.5 10.9395C -0.499903 11.0046 -0.478969 11.5285 -0.449436 11.7945L 0.544325 11.683C 0.5316 11.5709 0.52083 11.3999 0.512612 11.241C 0.504424 11.0831 0.500079 10.9208 0.5 10.9395L -0.5 10.9395ZM -0.448452 11.8027C -0.234412 13.4191 0.528083 15.1014 1.45003 16.7129C 2.37173 18.3221 3.47066 19.9189 4.39978 21.4498L 5.25458 20.9308C 4.31026 19.3757 3.21824 17.7897 2.31789 16.2161C 1.41778 14.6449 0.727124 13.1444 0.543341 11.6748L -0.448452 11.8027ZM 4.40026 21.4505C 6.41896 24.7619 8.51305 28.0185 10.5846 31.2687L 11.4278 30.7313C 9.35525 27.4794 7.2665 24.2312 5.25411 20.93L 4.40026 21.4505ZM 11.4345 31.2579C 12.7131 29.1348 13.986 26.9856 15.2334 24.9209L 14.3775 24.4038C 13.1278 26.4723 11.8546 28.6221 10.5779 30.7421L 11.4345 31.2579ZM 15.2415 24.907C 15.5735 24.3148 15.9658 23.713 16.3123 23.1243L 15.4505 22.6172C 15.1157 23.1863 14.7181 23.7968 14.3694 24.4177L 15.2415 24.907ZM 16.3122 23.1245C 16.4017 22.9688 16.5401 22.8103 16.7021 22.6205C 16.8641 22.4307 17.0527 22.2047 17.178 21.983L 16.3028 21.4994C 16.2299 21.6364 16.1026 21.7825 15.9414 21.9714C 15.7802 22.1603 15.5881 22.3873 15.4506 22.617L 16.3122 23.1245ZM 17.1762 21.9864C 18.1685 20.2209 19.4804 18.4276 20.5562 16.6126C 21.6272 14.8045 22.5 12.9144 22.5 10.9947L 21.5 10.9947C 21.5 12.6298 20.7507 14.322 19.6958 16.1029C 18.6457 17.877 17.3277 19.6796 16.3046 21.496L 17.1762 21.9864ZM 22.5 10.9947L 22.5 9.53432L 21.5 9.53432L 21.5 10.9947L 22.5 10.9947ZM 22.5 9.53442C 22.5 9.3672 22.4528 9.15389 22.4071 8.97538C 22.3579 8.78324 22.2914 8.56165 22.2269 8.35952C 22.1622 8.15704 22.0961 7.96258 22.0456 7.81685C 21.9946 7.66985 21.9496 7.54231 21.9546 7.55752L 21.0059 7.87369C 21.0219 7.92144 21.1508 8.27679 21.2742 8.66369C 21.3362 8.85768 21.3944 9.0511 21.4383 9.22312C 21.46 9.30786 21.4755 9.37552 21.487 9.43873C 21.498 9.49797 21.4991 9.55215 21.5 9.53422L 22.5 9.53442ZM 10.9397 13.8567C 9.69276 13.8567 8.34436 13.2637 7.66554 11.5795L 6.73804 11.9533C 7.59215 14.0724 9.34941 14.8567 10.9397 14.8567L 10.9397 13.8567ZM 7.66961 11.5899C 7.64169 11.5159 7.61745 11.3561 7.60555 11.1608C 7.59436 10.9831 7.59679 10.8327 7.5968 10.8015L 6.5968 10.8015C 6.59681 10.8258 6.59464 11.0065 6.6074 11.2217C 6.61944 11.4193 6.6477 11.7142 6.73397 11.9429L 7.66961 11.5899ZM 7.5968 10.8015L 7.5968 9.94723L 6.5968 9.94723L 6.5968 10.8015L 7.5968 10.8015ZM 7.5968 9.94723C 7.5968 8.90099 8.04601 8.16285 8.69037 7.67272C 9.3707 7.14398 10.2073 6.91591 11.0621 6.9205L 11.0621 5.9205C 10.0721 5.92509 8.9261 6.24825 8.08496 6.8768C 7.20786 7.54397 6.5968 8.56919 6.5968 9.94723L 7.5968 9.94723ZM 11.0621 6.9205C 13.0613 6.9205 14.5897 8.46468 14.5897 10.3889L 15.5897 10.3889C 15.5897 7.90392 13.6051 5.9205 11.0621 5.9205L 11.0621 6.9205ZM 14.5897 10.3889C 14.5897 12.2937 12.9589 13.8567 10.9397 13.8567L 10.9397 14.8567C 13.4628 14.8567 15.5897 12.8931 15.5897 10.3889L 14.5897 10.3889Z"/>
</defs>
</svg>
