<svg width="21" height="21" viewBox="0 0 21 21" version="1.1" xmlns="http://www.w3.org/2000/svg" xmlns:xlink="http://www.w3.org/1999/xlink">
<title>Vector</title>
<desc>Created using Figma</desc>
<g id="Canvas" transform="translate(251 -9641)">
<g id="Vector">
<use xlink:href="#path0_fill" transform="translate(-251 9641)" fill="#666666"/>
<use xlink:href="#path1_fill" transform="translate(-251 9641)" fill="#666666"/>
</g>
</g>
<defs>
<path id="path0_fill" fill-rule="evenodd" d="M 8.61678 15.1809C 12.2769 15.1809 15.2336 12.2244 15.2336 8.59043C 15.2336 4.95641 12.2769 2 8.61678 2C 4.95665 2 2 4.95641 2 8.59043C 2 12.2244 4.95665 15.1809 8.61678 15.1809ZM 8.61678 17.1809C 13.3757 17.1809 17.2336 13.3348 17.2336 8.59043C 17.2336 3.84606 13.3757 0 8.61678 0C 3.85786 0 0 3.84606 0 8.59043C 0 13.3348 3.85786 17.1809 8.61678 17.1809Z"/>
<path id="path1_fill" fill-rule="evenodd" d="M 13.7373 13.7372C 14.1279 13.3467 14.761 13.3467 15.1515 13.7372L 20.7071 19.2928C 21.0976 19.6833 21.0976 20.3165 20.7071 20.707C 20.3166 21.0975 19.6834 21.0975 19.2929 20.707L 13.7373 15.1514C 13.3468 14.7609 13.3468 14.1278 13.7373 13.7372Z"/>
</defs>
</svg>
