<svg width="16" height="13" viewBox="0 0 16 13" version="1.1" xmlns="http://www.w3.org/2000/svg" xmlns:xlink="http://www.w3.org/1999/xlink">
<title>sitemap</title>
<desc>Created using Figma</desc>
<g id="Canvas" transform="translate(-76 -258)">
<g id="sitemap">
<g id="Group">
<g id="Vector">
<use xlink:href="#path0_fill" transform="translate(76 258)" fill="#808080"/>
</g>
</g>
</g>
</g>
<defs>
<path id="path0_fill" d="M 15.3564 8.90375C 15.194 8.74581 14.9966 8.66678 14.7644 8.66678L 13.9288 8.66678L 13.9288 7.04171C 13.9288 6.74834 13.8185 6.49429 13.598 6.27999C 13.3775 6.06549 13.1161 5.95829 12.8144 5.95829L 8.3573 5.95829L 8.3573 4.33325L 9.19287 4.33325C 9.42515 4.33325 9.62246 4.25428 9.78492 4.09628C 9.9474 3.93836 10.0286 3.74653 10.0286 3.52076L 10.0286 0.812461C 10.0286 0.586749 9.9474 0.394862 9.78492 0.236947C 9.62246 0.0789428 9.42515 4.25196e-08 9.19287 4.25196e-08L 6.40719 4.25196e-08C 6.17503 4.25196e-08 5.97775 0.0789428 5.81524 0.236947C 5.65272 0.394862 5.57155 0.58672 5.57155 0.812461L 5.57155 3.52076C 5.57155 3.74653 5.65272 3.93827 5.81524 4.09628C 5.97766 4.25428 6.17503 4.33325 6.40719 4.33325L 7.24288 4.33325L 7.24288 5.95829L 2.78575 5.95829C 2.48395 5.95829 2.22282 6.06558 2.00222 6.27999C 1.78168 6.49429 1.67145 6.74834 1.67145 7.04171L 1.67145 8.66678L 0.835635 8.66678C 0.603569 8.66678 0.406201 8.74581 0.243684 8.90375C 0.0811974 9.06176 0 9.25347 0 9.47927L 0 12.1875C 0 12.4133 0.0811974 12.6052 0.243684 12.7631C 0.406201 12.9211 0.603569 13 0.835635 13L 3.62144 13C 3.85351 13 4.05088 12.921 4.21339 12.7631C 4.37591 12.6052 4.45708 12.4133 4.45708 12.1875L 4.45708 9.47927C 4.45708 9.25347 4.37591 9.06173 4.21339 8.90375C 4.05088 8.74581 3.85351 8.66678 3.62144 8.66678L 2.78565 8.66678L 2.78565 7.04171L 7.24279 7.04171L 7.24279 8.66678L 6.4071 8.66678C 6.17494 8.66678 5.97766 8.74581 5.81515 8.90375C 5.65263 9.06173 5.57146 9.25347 5.57146 9.47927L 5.57146 12.1875C 5.57146 12.4133 5.65263 12.6052 5.81515 12.7631C 5.97757 12.9211 6.17494 13 6.4071 13L 9.19278 13C 9.42506 13 9.62228 12.921 9.78485 12.7631C 9.94722 12.6051 10.0286 12.4133 10.0286 12.1875L 10.0286 9.47927C 10.0286 9.25347 9.94743 9.06173 9.78485 8.90375C 9.62228 8.74581 9.42506 8.66678 9.19278 8.66678L 8.35721 8.66678L 8.35721 7.04171L 12.8144 7.04171L 12.8144 8.66678L 11.9786 8.66678C 11.7466 8.66678 11.5491 8.74581 11.3866 8.90375C 11.2242 9.06173 11.143 9.25347 11.143 9.47927L 11.143 12.1875C 11.143 12.4133 11.2242 12.6052 11.3866 12.7631C 11.5491 12.9211 11.7466 13 11.9786 13L 14.7644 13C 14.9965 13 15.1938 12.921 15.3563 12.7631C 15.5188 12.6052 15.6 12.4133 15.6 12.1875L 15.6 9.47927C 15.6 9.25347 15.5188 9.06176 15.3564 8.90375Z"/>
</defs>
</svg>
