<svg width="12" height="12" viewBox="0 0 12 12" version="1.1" xmlns="http://www.w3.org/2000/svg" xmlns:xlink="http://www.w3.org/1999/xlink">
<title>Vector 12</title>
<desc>Created using Figma</desc>
<g id="Canvas" transform="translate(-28 571)">
<g id="Vector 12">
<use xlink:href="#path0_stroke" transform="translate(29 -570)" fill="#FFFFFF"/>
</g>
</g>
<defs>
<path id="path0_stroke" d="M -0.707107 9.29289C -1.09763 9.68342 -1.09763 10.3166 -0.707107 10.7071C -0.316583 11.0976 0.316583 11.0976 0.707107 10.7071L -0.707107 9.29289ZM 10.7071 0.707107C 11.0976 0.316583 11.0976 -0.316583 10.7071 -0.707107C 10.3166 -1.09763 9.68342 -1.09763 9.29289 -0.707107L 10.7071 0.707107ZM 0.707107 -0.707107C 0.316583 -1.09763 -0.316583 -1.09763 -0.707107 -0.707107C -1.09763 -0.316583 -1.09763 0.316583 -0.707107 0.707107L 0.707107 -0.707107ZM 9.29289 10.7071C 9.68342 11.0976 10.3166 11.0976 10.7071 10.7071C 11.0976 10.3166 11.0976 9.68342 10.7071 9.29289L 9.29289 10.7071ZM 0.707107 10.7071L 5.70711 5.70711L 4.29289 4.29289L -0.707107 9.29289L 0.707107 10.7071ZM 5.70711 5.70711L 10.7071 0.707107L 9.29289 -0.707107L 4.29289 4.29289L 5.70711 5.70711ZM 5.70711 4.29289L 0.707107 -0.707107L -0.707107 0.707107L 4.29289 5.70711L 5.70711 4.29289ZM -0.707107 0.707107L 9.29289 10.7071L 10.7071 9.29289L 0.707107 -0.707107L -0.707107 0.707107Z"/>
</defs>
</svg>
