<svg width="26" height="25" viewBox="0 0 26 25" version="1.1" xmlns="http://www.w3.org/2000/svg" xmlns:xlink="http://www.w3.org/1999/xlink">
<title>Vector</title>
<desc>Created using Figma</desc>
<g id="Canvas" transform="translate(-304 -9639)">
<g id="Vector">
<use xlink:href="#path0_stroke" transform="translate(305 9640)" fill="#FFFFFF"/>
</g>
</g>
<defs>
<path id="path0_stroke" d="M 23.9489 17.8208L 23.4765 17.9844L 23.4835 18.0047L 23.4922 18.0243L 23.9489 17.8208ZM 22.6535 16.9552L 22.4102 17.392L 22.4237 17.3995L 22.4377 17.4062L 22.6535 16.9552ZM 21.7335 16.4651L 21.9644 16.0216L 21.9642 16.0215L 21.7335 16.4651ZM 20.651 15.8932L 20.888 15.4529L 20.8876 15.4527L 20.651 15.8932ZM 19.7389 15.387L 19.4468 15.7928L 19.4676 15.8078L 19.4898 15.8206L 19.7389 15.387ZM 19.3129 15.101L 19.5892 14.6843L 19.5885 14.6838L 19.3129 15.101ZM 18.7075 14.7497L 18.9174 14.2959L 18.9168 14.2956L 18.7075 14.7497ZM 17.3697 15.101L 17.0332 14.7312L 17.0329 14.7314L 17.3697 15.101ZM 16.4323 16.114L 16.8269 16.4211L 16.827 16.4209L 16.4323 16.114ZM 15.5292 17.1267L 15.8784 17.4846L 15.8786 17.4844L 15.5292 17.1267ZM 14.3613 17.5108L 14.1939 17.982L 14.1949 17.9823L 14.3613 17.5108ZM 14.0115 17.3722L 13.7936 17.8223L 13.7989 17.8247L 14.0115 17.3722ZM 13.6028 17.1431L 13.858 16.7131L 13.8571 16.7126L 13.6028 17.1431ZM 13.2788 16.9552L 13.044 17.3966L 13.0528 17.4013L 13.0618 17.4056L 13.2788 16.9552ZM 9.27296 14.113L 8.92693 14.4739L 8.92709 14.4741L 9.27296 14.113ZM 6.30703 10.2741L 5.8635 10.5049L 5.86868 10.5149L 5.8743 10.5246L 6.30703 10.2741ZM 6.11096 9.96377L 6.53126 9.69294L 6.53119 9.69283L 6.11096 9.96377ZM 5.8722 9.57163L 6.31577 9.34088L 6.31541 9.3402L 5.8722 9.57163ZM 6.1281 8.11782L 5.78542 7.75371L 5.78535 7.75378L 6.1281 8.11782ZM 7.18488 7.25228L 6.89425 6.84542L 6.8941 6.84553L 7.18488 7.25228ZM 8.24173 6.35408L 8.5967 6.70621L 8.59686 6.70605L 8.24173 6.35408ZM 8.60826 5.07191L 8.16153 5.29649L 8.16166 5.29674L 8.60826 5.07191ZM 8.24173 4.49188L 8.6474 4.19959L 8.64728 4.19943L 8.24173 4.49188ZM 7.94326 4.08343L 7.51943 4.3487L 7.53315 4.37062L 7.54906 4.39101L 7.94326 4.08343ZM 7.41499 3.20971L 7.84628 2.95676L 7.84626 2.95672L 7.41499 3.20971ZM 6.81823 2.17236L 6.38321 2.41884L 6.38325 2.41892L 6.81823 2.17236ZM 6.30691 1.29041L 5.86359 1.52163L 5.87091 1.53566L 5.87909 1.54919L 6.30691 1.29041ZM 5.40369 0.0491469L 5.21382 0.511694L 5.23267 0.519429L 5.25208 0.525605L 5.40369 0.0491469ZM 3.84395 0.163403L 3.95147 0.651706L 3.95167 0.651663L 3.84395 0.163403ZM 2.67623 0.506459L 2.86286 0.970403L 2.87073 0.967079L 2.67623 0.506459ZM 0.86931 2.499L 0.436541 2.24853L 0.434227 2.25262L 0.86931 2.499ZM 0.0596456 6.39476L -0.435315 6.46557L -0.435305 6.46564L 0.0596456 6.39476ZM 0.272853 7.3341L 0.752635 7.19335L 0.752581 7.19317L 0.272853 7.3341ZM 0.519854 8.10992L 0.0508944 8.28335L 0.0509101 8.28339L 0.519854 8.10992ZM 0.86925 9.01648L 1.33494 8.83445L 1.33487 8.83427L 0.86925 9.01648ZM 1.17602 9.81679L 0.703657 9.9811L 0.707487 9.99138L 1.17602 9.81679ZM 2.59073 12.6754L 3.01115 12.4048L 3.00988 12.4028L 2.59073 12.6754ZM 6.26387 16.9963L 5.91791 17.3573L 5.91793 17.3573L 6.26387 16.9963ZM 10.7726 20.5165L 11.029 20.0872L 11.0272 20.0861L 10.7726 20.5165ZM 13.7558 21.8723L 13.5938 22.3455L 13.6045 22.3489L 13.7558 21.8723ZM 14.5909 22.1664L 14.4213 22.6368L 14.4218 22.637L 14.5909 22.1664ZM 15.5369 22.5013L 15.6981 22.028L 15.698 22.0279L 15.5369 22.5013ZM 16.3464 22.7384L 16.2161 23.2211L 16.2163 23.2212L 16.3464 22.7384ZM 17.3267 22.943L 17.2611 23.4387L 17.2624 23.4389L 17.3267 22.943ZM 21.3923 22.1668L 21.6229 22.6105L 21.6269 22.6084L 21.3923 22.1668ZM 23.4714 20.435L 23.0173 20.2255L 23.0134 20.2345L 23.4714 20.435ZM 23.8294 19.3162L 23.3433 19.1992L 23.3432 19.1996L 23.8294 19.3162ZM 24 18.1647L 23.5 18.1636L 23.5 18.1647L 24 18.1647ZM 24.4214 17.6571C 24.3671 17.5002 24.2632 17.3802 24.1779 17.2974C 24.0955 17.2185 23.9748 17.124 23.852 17.0415C 23.6171 16.8852 23.2791 16.7004 22.8694 16.5042L 22.4377 17.4062C 22.8236 17.5907 23.0993 17.7407 23.2963 17.873C 23.3894 17.9348 23.4392 17.973 23.4817 18.0153C 23.5213 18.0537 23.4969 18.0433 23.4765 17.9844L 24.4214 17.6571ZM 22.8968 16.5183C 22.6769 16.3959 22.3636 16.2295 21.9644 16.0216L 21.5025 16.9085C 21.8981 17.1145 22.1991 17.2744 22.4102 17.392L 22.8968 16.5183ZM 21.9642 16.0215C 21.5679 15.8153 21.2099 15.6262 20.888 15.4529L 20.414 16.3334C 20.7394 16.5086 21.1036 16.701 21.5027 16.9086L 21.9642 16.0215ZM 20.8876 15.4527C 20.5664 15.2801 20.2688 15.1148 19.988 14.9535L 19.4898 15.8206C 19.7769 15.9855 20.087 16.1577 20.4144 16.3336L 20.8876 15.4527ZM 20.0311 14.9813C 19.9788 14.9437 19.8288 14.8432 19.5892 14.6843L 19.0366 15.5177C 19.2742 15.6753 19.4083 15.765 19.4468 15.7928L 20.0311 14.9813ZM 19.5885 14.6838C 19.3376 14.5183 19.1034 14.3826 18.9174 14.2959L 18.4975 15.2035C 18.6417 15.2696 18.8105 15.3681 19.0373 15.5182L 19.5885 14.6838ZM 18.9168 14.2956C 18.7056 14.201 18.4385 14.1389 18.2216 14.1355L 18.2216 15.1355C 18.3229 15.1322 18.3799 15.1465 18.4982 15.2038L 18.9168 14.2956ZM 18.2216 14.1355C 17.7923 14.1355 17.3853 14.4107 17.0332 14.7312L 17.7063 15.4708C 17.8581 15.3317 17.9662 15.2504 18.078 15.1907C 18.1284 15.1625 18.1486 15.1535 18.1858 15.1431C 18.217 15.1324 18.2386 15.1371 18.2216 15.1355L 18.2216 14.1355ZM 17.0329 14.7314C 16.6768 15.0565 16.3352 15.4252 16.0376 15.8071L 16.827 16.4209C 17.0974 16.0726 17.381 15.7666 17.7065 15.4705L 17.0329 14.7314ZM 16.0377 15.8069C 15.7643 16.1587 15.4858 16.4707 15.1799 16.7689L 15.8786 17.4844C 16.2085 17.1619 16.5323 16.7992 16.8269 16.4211L 16.0377 15.8069ZM 15.1801 16.7688C 15.0376 16.9078 14.9242 16.9955 14.8392 17.046C 14.7559 17.0987 14.7229 17.0859 14.745 17.0923L 14.745 18.0923C 15.1671 18.0923 15.5573 17.7978 15.8784 17.4846L 15.1801 16.7688ZM 14.745 17.0923C 14.6951 17.0951 14.6504 17.0837 14.5276 17.0393L 14.1949 17.9823C 14.3787 18.0461 14.5898 18.0895 14.745 18.0923L 14.745 17.0923ZM 14.5286 17.0397C 14.3847 16.9886 14.2908 16.9512 14.2242 16.9197L 13.7989 17.8247C 13.8923 17.8684 14.0315 17.9242 14.1939 17.982L 14.5286 17.0397ZM 14.2294 16.9222C 14.1632 16.8903 14.0457 16.8245 13.858 16.7131L 13.3477 17.5731C 13.5467 17.6911 13.7013 17.7773 13.7936 17.8222L 14.2294 16.9222ZM 13.8571 16.7126C 13.6794 16.6077 13.5434 16.5277 13.4957 16.5047L 13.0618 17.4056C 13.0505 17.4002 13.0475 17.3981 13.0662 17.4086C 13.0808 17.4168 13.0997 17.4277 13.1257 17.4428C 13.1786 17.4735 13.2523 17.5168 13.3486 17.5737L 13.8571 16.7126ZM 13.5135 16.5137C 11.9845 15.7018 10.7052 14.7944 9.61882 13.7519L 8.92709 14.4741C 10.0683 15.5653 11.4594 16.5528 13.044 17.3966L 13.5135 16.5137ZM 9.61898 13.7521C 8.53135 12.7112 7.58576 11.4874 6.73977 10.0236L 5.8743 10.5246C 6.75558 12.0449 7.78767 13.3798 8.92693 14.4739L 9.61898 13.7521ZM 6.75057 10.0433C 6.72522 9.99458 6.63978 9.86136 6.53126 9.69294L 5.69066 10.2346C 5.74988 10.3265 5.79489 10.3968 5.8268 10.4473C 5.84247 10.4721 5.85363 10.4899 5.86209 10.5037C 5.87324 10.5219 5.8701 10.5176 5.8635 10.5049L 6.75057 10.0433ZM 6.53119 9.69283C 6.41514 9.51291 6.34744 9.40239 6.31577 9.34088L 5.42863 9.80238C 5.47649 9.89375 5.56796 10.0442 5.69074 10.2347L 6.53119 9.69283ZM 6.31541 9.3402C 6.2838 9.28038 6.24692 9.19451 6.19389 9.0568L 5.26094 9.41682C 5.32135 9.57308 5.38107 9.71057 5.42898 9.80306L 6.31541 9.3402ZM 6.19389 9.0568C 6.14737 8.93626 6.14221 8.87962 6.14221 8.86927L 5.14221 8.86927C 5.14221 9.05516 5.19402 9.24339 5.26094 9.41682L 6.19389 9.0568ZM 6.14221 8.86927C 6.14221 8.90566 6.12948 8.88959 6.18358 8.80591C 6.23482 8.72666 6.3254 8.61879 6.47084 8.48186L 5.78535 7.75378C 5.60617 7.92328 5.44551 8.10808 5.34381 8.26297C 5.23594 8.4298 5.14221 8.63697 5.14221 8.86927L 6.14221 8.86927ZM 6.47077 8.48193C 6.78191 8.1887 7.10831 7.92131 7.47566 7.65904L 6.8941 6.84553C 6.50033 7.12736 6.12197 7.43738 5.78542 7.75371L 6.47077 8.48193ZM 7.47551 7.65915C 7.87335 7.37441 8.25758 7.04744 8.5967 6.70621L 7.88675 6.00195C 7.57795 6.31388 7.25813 6.58606 6.89425 6.84542L 7.47551 7.65915ZM 8.59686 6.70605C 8.92642 6.37353 9.22749 5.97339 9.22749 5.53746L 8.22749 5.53746C 8.22113 5.50806 8.2321 5.56131 8.17634 5.64927C 8.115 5.75493 8.03146 5.85682 7.8866 6.00211L 8.59686 6.70605ZM 9.22749 5.53746C 9.22357 5.32262 9.15594 5.05433 9.05486 4.84708L 8.16166 5.29674C 8.21951 5.4052 8.23141 5.44759 8.22749 5.53746L 9.22749 5.53746ZM 9.05498 4.84734C 8.96387 4.66745 8.82085 4.44073 8.6474 4.19959L 7.83605 4.78416C 7.99229 5.00063 8.09358 5.15999 8.16153 5.29649L 9.05498 4.84734ZM 8.64728 4.19943C 8.48143 3.96944 8.37639 3.82584 8.33746 3.77584L 7.54906 4.39101C 7.57843 4.42855 7.67221 4.55695 7.83617 4.78433L 8.64728 4.19943ZM 8.36708 3.81815C 8.19889 3.54946 8.02667 3.26435 7.84628 2.95676L 6.98369 3.46266C 7.16738 3.77584 7.34706 4.07328 7.51943 4.3487L 8.36708 3.81815ZM 7.84626 2.95672C 7.66537 2.64836 7.46852 2.30566 7.25321 1.92581L 6.38325 2.41892C 6.59997 2.80126 6.80052 3.1504 6.98371 3.4627L 7.84626 2.95672ZM 7.25325 1.92588C 7.03625 1.5429 6.86233 1.2426 6.73474 1.03162L 5.87909 1.54919C 6.00178 1.75198 6.16854 2.03996 6.38321 2.41884L 7.25325 1.92588ZM 6.75024 1.05918C 6.54492 0.665955 6.35105 0.340243 6.18727 0.114223C 6.04013 -0.0880112 5.82991 -0.339931 5.55531 -0.427312L 5.25208 0.525605C 5.18209 0.503334 5.22471 0.49097 5.37865 0.702551C 5.51595 0.890346 5.67139 1.15271 5.86359 1.52163L 6.75024 1.05918ZM 5.59356 -0.413401C 5.42259 -0.483582 5.22452 -0.5 5.04576 -0.5L 5.04576 0.5C 5.10909 0.5 5.15502 0.503352 5.18638 0.507663C 5.21942 0.512206 5.22508 0.516316 5.21382 0.511694L 5.59356 -0.413401ZM 5.04576 -0.5C 4.70506 -0.498863 4.2507 -0.437922 3.73623 -0.324856L 3.95167 0.651663C 4.4258 0.546628 4.77245 0.498863 5.04576 0.5L 5.04576 -0.5ZM 3.73643 -0.3249C 3.22523 -0.212038 2.79244 -0.0844761 2.48173 0.0458392L 2.87073 0.967079C 3.1283 0.857438 3.47371 0.756601 3.95147 0.651706L 3.73643 -0.3249ZM 2.48963 0.042583C 1.75321 0.338818 1.07932 1.13795 0.43656 2.24854L 1.30206 2.74945C 1.93222 1.66062 2.46283 1.13124 2.86283 0.970335L 2.48963 0.042583ZM 0.434227 2.25262C -0.171376 3.32915 -0.495157 4.46599 -0.5 5.53718L 0.5 5.53718C 0.495157 4.60484 0.750876 3.71574 1.30439 2.74538L 0.434227 2.25262ZM -0.5 5.53718C -0.499699 5.84833 -0.477324 6.1696 -0.435315 6.46557L 0.554606 6.32395C 0.517088 6.06403 0.499699 5.81361 0.5 5.53718L -0.5 5.53718ZM -0.435305 6.46564C -0.392271 6.76325 -0.313445 7.1114 -0.206874 7.47503L 0.752581 7.19317C 0.654362 6.85971 0.591089 6.58159 0.554596 6.32388L -0.435305 6.46564ZM -0.206928 7.47485C -0.103059 7.8288 -0.015288 8.10401 0.0508944 8.28335L 0.988814 7.9365C 0.930332 7.77873 0.853197 7.53627 0.752635 7.19335L -0.206928 7.47485ZM 0.0509101 8.28339C 0.114498 8.45526 0.232656 8.76177 0.403632 9.19869L 1.33487 8.83427C 1.16481 8.3997 1.04999 8.10192 0.988799 7.93645L 0.0509101 8.28339ZM 0.403562 9.19851C 0.573297 9.63274 0.672355 9.89055 0.703771 9.98106L 1.64826 9.65252C 1.61149 9.54701 1.50576 9.27148 1.33494 8.83445L 0.403562 9.19851ZM 0.707487 9.99138C 1.11479 11.0825 1.61095 12.0845 2.17159 12.948L 3.00988 12.4028C 2.4797 11.5892 2.03264 10.6856 1.64454 9.6422L 0.707487 9.99138ZM 2.17033 12.9461C 3.08655 14.3672 4.3488 15.8526 5.91791 17.3573L 6.60982 16.6353C 5.07664 15.1669 3.88966 13.7714 3.01114 12.4048L 2.17033 12.9461ZM 5.91793 17.3573C 7.48783 18.8608 9.03627 20.0693 10.5181 20.9468L 11.0272 20.0861C 9.59967 19.2431 8.14231 18.1047 6.6098 16.6353L 5.91793 17.3573ZM 10.5163 20.9457C 11.4157 21.482 12.4576 21.9556 13.5938 22.3453L 13.9178 21.3993C 12.8269 21.0263 11.8796 20.5961 11.029 20.0872L 10.5163 20.9457ZM 13.6045 22.3489C 13.6995 22.379 13.9687 22.4737 14.4213 22.6368L 14.7604 21.6961C 14.3041 21.5317 14.0168 21.4306 13.9071 21.3958L 13.6045 22.3489ZM 14.4218 22.637C 14.8775 22.8007 15.1969 22.9137 15.3758 22.9746L 15.698 22.0279C 15.5248 21.969 15.2134 21.8588 14.7599 21.6959L 14.4218 22.637ZM 15.3757 22.9746C 15.5621 23.0379 15.8477 23.1216 16.2161 23.2211L 16.4768 22.2557C 16.1185 22.159 15.8638 22.0845 15.6981 22.028L 15.3757 22.9746ZM 16.2163 23.2212C 16.5944 23.3229 16.953 23.3975 17.2611 23.4387L 17.3924 22.4473C 17.1209 22.4117 16.8267 22.3502 16.4765 22.2556L 16.2163 23.2212ZM 17.2624 23.4389C 17.5683 23.4783 17.8988 23.4997 18.2217 23.5L 18.2217 22.5C 17.9312 22.5003 17.665 22.483 17.391 22.4472L 17.2624 23.4389ZM 18.2217 23.5C 19.331 23.4959 20.5041 23.1887 21.6229 22.6105L 21.1617 21.7232C 20.1441 22.2557 19.2029 22.5041 18.2217 22.5L 18.2217 23.5ZM 21.6269 22.6084C 22.7791 21.9962 23.616 21.3513 23.9294 20.6356L 23.0134 20.2345C 22.8496 20.6086 22.3005 21.1181 21.1577 21.7253L 21.6269 22.6084ZM 23.9254 20.6445C 24.063 20.344 24.1974 19.9244 24.3156 19.4328L 23.3432 19.1996C 23.2342 19.6558 23.1308 19.982 23.0174 20.2256L 23.9254 20.6445ZM 24.3155 19.4332C 24.4343 18.9377 24.4987 18.4954 24.5 18.1647L 23.5 18.1647C 23.5013 18.4223 23.4525 18.7475 23.3433 19.1992L 24.3155 19.4332ZM 24.5 18.1659C 24.5004 17.9897 24.4831 17.7909 24.4056 17.6172L 23.4922 18.0243C 23.4856 18.0094 23.4888 18.0103 23.4929 18.0378C 23.4968 18.0641 23.5001 18.1048 23.5 18.1636L 24.5 18.1659Z"/>
</defs>
</svg>
