<svg width="45" height="45" viewBox="0 0 45 45" version="1.1" xmlns="http://www.w3.org/2000/svg" xmlns:xlink="http://www.w3.org/1999/xlink">
<title>price-tag</title>
<desc>Created using Figma</desc>
<g id="Canvas" transform="translate(-27940 207)">
<g id="price-tag">
<g id="Vector">
<use xlink:href="#path0_fill" transform="translate(27940 -207)" fill="#333333"/>
</g>
</g>
</g>
<defs>
<path id="path0_fill" d="M 45 8.84541L 36.1339 0L 24.9632 0L 20.5609 4.38801C 9.61437 3.47467 0.788102 9.63272 0.664463 9.72126C 0.306307 9.97651 0.222551 10.4751 0.479402 10.834C 0.634949 11.051 0.879835 11.1674 1.12871 11.1674C 1.28904 11.1674 1.45097 11.1188 1.59136 11.0183C 1.70224 10.9393 9.33837 5.61323 19.0453 5.898L 4.78525 20.1118L 4.79163 20.1181L 0 24.8978L 20.0583 45L 28.067 37.0129C 29.7118 37.8744 31.6254 38.2979 33.5183 38.2971C 36.3109 38.2971 39.0501 37.3894 40.7779 35.6616C 46.6544 29.7844 44.322 23.3376 43.5243 21.5962L 44.9992 20.1245L 44.9992 8.84541L 45 8.84541ZM 35.475 1.59535L 43.4047 9.50748L 43.4047 19.4625L 27.8197 34.9964C 24.562 32.6608 23.5705 28.2784 25.0334 22.5319C 25.1427 22.1052 24.8842 21.6704 24.4575 21.5619C 24.0291 21.4479 23.5968 21.7111 23.4875 22.1379C 21.4223 30.2478 24.1975 34.2473 26.6774 36.1346L 24.8484 37.9581L 7.04825 20.1205L 21.1511 6.05435C 24.4998 6.43723 28.0359 7.54281 31.5576 9.77709C 31.5265 9.95338 31.5033 10.1329 31.5033 10.3179C 31.5033 12.0489 32.9112 13.4568 34.6422 13.4568C 36.3732 13.4568 37.7818 12.0489 37.7818 10.3179C 37.7818 8.58696 36.3732 7.17907 34.6422 7.17907C 33.6722 7.17907 32.8147 7.63055 32.2388 8.32453C 28.9771 6.28488 25.7082 5.14819 22.5726 4.63768L 25.6221 1.59535L 35.475 1.59535ZM 33.354 11.0079C 33.7065 11.2727 34.2067 11.2017 34.4699 10.8484C 34.7347 10.4966 34.6629 9.99645 34.3104 9.73242C 34.0639 9.54816 33.8166 9.38544 33.5701 9.21234C 33.8485 8.94193 34.2258 8.77442 34.6422 8.77442C 35.4933 8.77442 36.1865 9.4668 36.1865 10.3187C 36.1865 11.169 35.4941 11.8622 34.6422 11.8622C 34.0017 11.8622 33.4521 11.4698 33.2183 10.913C 33.2638 10.9457 33.3093 10.9736 33.354 11.0079ZM 2.25582 24.901L 5.91874 21.2477L 23.7244 39.0916L 20.0615 42.745L 2.25582 24.901ZM 39.65 34.5337C 37.5952 36.5869 32.9735 37.5234 29.2563 35.8267L 42.3182 22.7991C 43.1119 24.7742 44.3962 29.7868 39.65 34.5337Z"/>
</defs>
</svg>
