<svg width="17" height="17" viewBox="0 0 17 17" version="1.1" xmlns="http://www.w3.org/2000/svg" xmlns:xlink="http://www.w3.org/1999/xlink">
<title>Group</title>
<desc>Created using Figma</desc>
<g id="Canvas" transform="translate(-39864 -624)">
<g id="Group">
<g id="Ellipse 18">
<mask id="mask0_outline_ins">
<use xlink:href="#path0_fill" fill="white" transform="translate(39864 624)"/>
</mask>
<g mask="url(#mask0_outline_ins)">
<use xlink:href="#path1_stroke_2x" transform="translate(39864 624)" fill="gray"/>
</g>
</g>
<g id="?">
<use xlink:href="#path2_fill" transform="translate(39870 624)" fill="gray"/>
</g>
</g>
</g>
<defs>
<path id="path0_fill" d="M 17 8.5C 17 13.1944 13.1944 17 8.5 17C 3.80558 17 0 13.1944 0 8.5C 0 3.80558 3.80558 0 8.5 0C 13.1944 0 17 3.80558 17 8.5Z"/>
<path id="path1_stroke_2x" d="M 16 8.5C 16 12.6421 12.6421 16 8.5 16L 8.5 18C 13.7467 18 18 13.7467 18 8.5L 16 8.5ZM 8.5 16C 4.35786 16 1 12.6421 1 8.5L -1 8.5C -1 13.7467 3.25329 18 8.5 18L 8.5 16ZM 1 8.5C 1 4.35786 4.35786 1 8.5 1L 8.5 -1C 3.25329 -1 -1 3.25329 -1 8.5L 1 8.5ZM 8.5 1C 12.6421 1 16 4.35786 16 8.5L 18 8.5C 18 3.25329 13.7467 -1 8.5 -1L 8.5 1Z"/>
<path id="path2_fill" d="M 1.69336 10.6387L 1.69336 10.3223C 1.69336 9.86523 1.76367 9.49023 1.9043 9.19727C 2.04492 8.90039 2.30664 8.58789 2.68945 8.25977C 3.2207 7.81055 3.55469 7.47266 3.69141 7.24609C 3.83203 7.01953 3.90234 6.74609 3.90234 6.42578C 3.90234 6.02734 3.77344 5.7207 3.51562 5.50586C 3.26172 5.28711 2.89453 5.17773 2.41406 5.17773C 2.10547 5.17773 1.80469 5.21484 1.51172 5.28906C 1.21875 5.35938 0.882813 5.49023 0.503906 5.68164L 0.158203 4.89062C 0.896484 4.50391 1.66797 4.31055 2.47266 4.31055C 3.21875 4.31055 3.79883 4.49414 4.21289 4.86133C 4.62695 5.22852 4.83398 5.74609 4.83398 6.41406C 4.83398 6.69922 4.79492 6.95117 4.7168 7.16992C 4.64258 7.38477 4.53125 7.58984 4.38281 7.78516C 4.23438 7.97656 3.91406 8.28711 3.42188 8.7168C 3.02734 9.05273 2.76562 9.33203 2.63672 9.55469C 2.51172 9.77734 2.44922 10.0742 2.44922 10.4453L 2.44922 10.6387L 1.69336 10.6387ZM 1.40625 12.3789C 1.40625 11.8477 1.64062 11.582 2.10938 11.582C 2.33594 11.582 2.50977 11.6504 2.63086 11.7871C 2.75586 11.9238 2.81836 12.1211 2.81836 12.3789C 2.81836 12.6289 2.75586 12.8242 2.63086 12.9648C 2.50586 13.1016 2.33203 13.1699 2.10938 13.1699C 1.90625 13.1699 1.73828 13.1094 1.60547 12.9883C 1.47266 12.8633 1.40625 12.6602 1.40625 12.3789Z"/>
</defs>
</svg>
