<svg width="43" height="36" viewBox="0 0 43 36" version="1.1" xmlns="http://www.w3.org/2000/svg" xmlns:xlink="http://www.w3.org/1999/xlink">
<title>Group</title>
<desc>Created using Figma</desc>
<g id="Canvas" transform="translate(-27917 -671)">
<g id="Group">
<g id="Group">
<g id="Vector">
<use xlink:href="#path0_fill" transform="translate(27917 671)" fill="#F82900"/>
</g>
<g id="Vector">
<use xlink:href="#path1_fill" transform="translate(27939.6 671)" fill="#F82900"/>
</g>
</g>
</g>
</g>
<defs>
<path id="path0_fill" d="M 14.5384 16.3638L 8.88445 16.3638C 8.21132 16.3638 7.63907 16.1252 7.16787 15.6479C 6.69693 15.1706 6.46115 14.5911 6.46115 13.909L 6.46115 13.0912C 6.46115 11.2843 7.09228 9.7418 8.35445 8.46323C 9.61654 7.18512 11.1395 6.54579 12.9231 6.54579L 14.5384 6.54579C 14.9758 6.54579 15.3543 6.38378 15.6741 6.06005C 15.9938 5.73613 16.1536 5.35275 16.1536 4.90954L 16.1536 1.63651C 16.1536 1.1934 15.9937 0.80966 15.6741 0.485742C 15.3544 0.162272 14.9759 -1.63979e-07 14.5384 -1.63979e-07L 12.9231 -1.63979e-07C 11.1729 -1.63979e-07 9.5032 0.3455 7.91287 1.03552C 6.32271 1.72598 4.94729 2.65931 3.78607 3.83561C 2.62495 5.01137 1.70385 6.40474 1.02233 8.01573C 0.340805 9.62654 0 11.3184 0 13.0911L 0 31.0907C 0 32.4551 0.470939 33.6136 1.41326 34.5685C 2.35567 35.5229 3.50017 36 4.84624 36L 14.539 36C 15.885 36 17.0291 35.5229 17.9716 34.5685C 18.9138 33.6136 19.385 32.4551 19.385 31.0907L 19.385 21.273C 19.385 19.9089 18.9138 18.7504 17.971 17.7954C 17.0289 16.8411 15.8843 16.3638 14.5384 16.3638Z"/>
<path id="path1_fill" d="M 17.9714 17.7954C 17.0294 16.8411 15.8851 16.3638 14.5388 16.3638L 8.88498 16.3638C 8.21221 16.3638 7.63942 16.1252 7.16902 15.6479C 6.69764 15.1706 6.4623 14.5911 6.4623 13.909L 6.4623 13.0912C 6.4623 11.2843 7.09343 9.7418 8.35498 8.46323C 9.61662 7.18512 11.1395 6.54579 12.924 6.54579L 14.5389 6.54579C 14.9764 6.54579 15.3551 6.38378 15.6747 6.06005C 15.9941 5.73613 16.1546 5.35275 16.1546 4.90954L 16.1546 1.63651C 16.1546 1.1934 15.9942 0.80966 15.6747 0.485742C 15.3552 0.162272 14.9765 -1.63979e-07 14.5389 -1.63979e-07L 12.924 -1.63979e-07C 11.1728 -1.63979e-07 9.50347 0.3455 7.91269 1.03552C 6.3228 1.72598 4.94782 2.65931 3.78661 3.83561C 2.62539 5.01137 1.70385 6.40474 1.02259 8.01573C 0.341247 9.62654 6.47505e-07 11.3184 6.47505e-07 13.0911L 6.47505e-07 31.0907C 6.47505e-07 32.4551 0.471382 33.6136 1.41344 34.5685C 2.35558 35.5229 3.49981 36 4.84606 36L 14.5383 36C 15.8846 36 17.0288 35.5229 17.9708 34.5685C 18.9136 33.6136 19.384 32.4551 19.384 31.0907L 19.384 21.273C 19.3841 19.9088 18.9136 18.7504 17.9714 17.7954Z"/>
</defs>
</svg>
