<svg width="38" height="32" viewBox="0 0 38 32" version="1.1" xmlns="http://www.w3.org/2000/svg" xmlns:xlink="http://www.w3.org/1999/xlink">
<title>quote-left</title>
<desc>Created using Figma</desc>
<g id="Canvas" transform="translate(-39760 -13417)">
<g id="quote-left">
<g id="Group">
<g id="Group">
<g id="Vector">
<use xlink:href="#path0_fill" transform="translate(39760 13417)" fill="#F82900"/>
</g>
<g id="Vector">
<use xlink:href="#path1_fill" transform="translate(39780.5 13417)" fill="#F82900"/>
</g>
</g>
</g>
</g>
</g>
<defs>
<path id="path0_fill" d="M 13.1534 14.5456L 8.03808 14.5456C 7.42909 14.5456 6.91135 14.3335 6.48503 13.9092C 6.05896 13.485 5.84564 12.9698 5.84564 12.3636L 5.84564 11.6366C 5.84564 10.0305 6.41665 8.65938 7.55858 7.52287C 8.70043 6.38677 10.0783 5.81848 11.692 5.81848L 13.1534 5.81848C 13.5492 5.81848 13.8916 5.67448 14.1809 5.38671C 14.4702 5.09878 14.6148 4.758 14.6148 4.36404L 14.6148 1.45468C 14.6148 1.0608 14.4701 0.719698 14.1809 0.431771C 13.8916 0.144242 13.5492 -1.45759e-07 13.1534 -1.45759e-07L 11.692 -1.45759e-07C 10.1086 -1.45759e-07 8.59789 0.307112 7.15906 0.920459C 5.72038 1.5342 4.47599 2.36383 3.4254 3.40943C 2.37489 4.45455 1.54153 5.6931 0.924936 7.1251C 0.308339 8.55693 0 10.0608 0 11.6366L 0 27.6362C 0 28.849 0.426075 29.8787 1.27863 30.7275C 2.13126 31.5759 3.16673 32 4.38457 32L 13.1539 32C 14.3717 32 15.4069 31.5759 16.2596 30.7275C 17.112 29.8787 17.5383 28.849 17.5383 27.6362L 17.5383 18.9093C 17.5383 17.6968 17.112 16.667 16.259 15.8181C 15.4067 14.9699 14.3711 14.5456 13.1534 14.5456Z"/>
<path id="path1_fill" d="M 16.2594 15.8181C 15.4071 14.9699 14.3719 14.5456 13.1538 14.5456L 8.03856 14.5456C 7.42989 14.5456 6.91167 14.3335 6.48607 13.9092C 6.0596 13.485 5.84668 12.9698 5.84668 12.3636L 5.84668 11.6366C 5.84668 10.0305 6.41769 8.65938 7.55906 7.52287C 8.70051 6.38677 10.0783 5.81848 11.6928 5.81848L 13.1539 5.81848C 13.5497 5.81848 13.8924 5.67448 14.1815 5.38671C 14.4705 5.09878 14.6157 4.758 14.6157 4.36404L 14.6157 1.45468C 14.6157 1.0608 14.4706 0.719698 14.1815 0.431771C 13.8924 0.144242 13.5498 -1.45759e-07 13.1539 -1.45759e-07L 11.6928 -1.45759e-07C 10.1085 -1.45759e-07 8.59813 0.307112 7.1589 0.920459C 5.72047 1.5342 4.47647 2.36383 3.42588 3.40943C 2.37529 4.45455 1.54153 5.6931 0.925176 7.1251C 0.308738 8.55693 5.85821e-07 10.0608 5.85821e-07 11.6366L 5.85821e-07 27.6362C 5.85821e-07 28.849 0.426477 29.8787 1.27879 30.7275C 2.13118 31.5759 3.16641 32 4.38441 32L 13.1533 32C 14.3714 32 15.4065 31.5759 16.2589 30.7275C 17.1118 29.8787 17.5374 28.849 17.5374 27.6362L 17.5374 18.9093C 17.5375 17.6967 17.1118 16.667 16.2594 15.8181Z"/>
</defs>
</svg>
