<svg width="412" height="39" viewBox="0 0 412 39" version="1.1" xmlns="http://www.w3.org/2000/svg" xmlns:xlink="http://www.w3.org/1999/xlink">
<title>Rectangle 15</title>
<desc>Created using Figma</desc>
<g id="Canvas" transform="translate(145 -8336)">
<g id="Rectangle 15">
<mask id="mask0_outline_ins">
<use xlink:href="#path0_fill" fill="white" transform="translate(-145 8336)"/>
</mask>
<g mask="url(#mask0_outline_ins)">
<use xlink:href="#path1_stroke_2x" transform="translate(-145 8336)" fill="#FFFFFF" fill-opacity="0.5"/>
</g>
</g>
</g>
<defs>
<path id="path0_fill" d="M 0 5C 0 2.23858 2.23858 0 5 0L 407 0C 409.761 0 412 2.23858 412 5L 412 34C 412 36.7614 409.761 39 407 39L 5 39C 2.23858 39 0 36.7614 0 34L 0 5Z"/>
<path id="path1_stroke_2x" d="M 5 1L 407 1L 407 -1L 5 -1L 5 1ZM 411 5L 411 34L 413 34L 413 5L 411 5ZM 407 38L 5 38L 5 40L 407 40L 407 38ZM 1 34L 1 5L -1 5L -1 34L 1 34ZM 5 -1C 1.68629 -1 -1 1.68629 -1 5L 1 5C 1 2.79086 2.79086 1 5 1L 5 -1ZM 407 1C 409.209 1 411 2.79086 411 5L 413 5C 413 1.68629 410.314 -1 407 -1L 407 1ZM 411 34C 411 36.2091 409.209 38 407 38L 407 40C 410.314 40 413 37.3137 413 34L 411 34ZM 5 38C 2.79086 38 1 36.2091 1 34L -1 34C -1 37.3137 1.68629 40 5 40L 5 38Z"/>
</defs>
</svg>
