<svg width="9" height="9" viewBox="0 0 9 9" version="1.1" xmlns="http://www.w3.org/2000/svg" xmlns:xlink="http://www.w3.org/1999/xlink">
<title>Vector 8</title>
<desc>Created using Figma</desc>
<g id="Canvas" transform="translate(-22684 -1671)">
<g id="Vector 8">
<use xlink:href="#path0_stroke" transform="translate(22685 1672)" fill="#999999"/>
</g>
</g>
<defs>
<path id="path0_stroke" d="M 0.353553 -0.353553C 0.158291 -0.548816 -0.158291 -0.548816 -0.353553 -0.353553C -0.548816 -0.158291 -0.548816 0.158291 -0.353553 0.353553L 0.353553 -0.353553ZM 6.64645 7.35355C 6.84171 7.54882 7.15829 7.54882 7.35355 7.35355C 7.54882 7.15829 7.54882 6.84171 7.35355 6.64645L 6.64645 7.35355ZM 7.35355 0.353553C 7.54882 0.158291 7.54882 -0.158291 7.35355 -0.353553C 7.15829 -0.548816 6.84171 -0.548816 6.64645 -0.353553L 7.35355 0.353553ZM -0.353553 6.64645C -0.548816 6.84171 -0.548816 7.15829 -0.353553 7.35355C -0.158291 7.54882 0.158291 7.54882 0.353553 7.35355L -0.353553 6.64645ZM -0.353553 0.353553L 3.14645 3.85355L 3.85355 3.14645L 0.353553 -0.353553L -0.353553 0.353553ZM 3.14645 3.85355L 6.64645 7.35355L 7.35355 6.64645L 3.85355 3.14645L 3.14645 3.85355ZM 3.85355 3.85355L 7.35355 0.353553L 6.64645 -0.353553L 3.14645 3.14645L 3.85355 3.85355ZM 6.64645 -0.353553L -0.353553 6.64645L 0.353553 7.35355L 7.35355 0.353553L 6.64645 -0.353553Z"/>
</defs>
</svg>
